<svg xmlns="http://www.w3.org/2000/svg" version="1.1" xmlns:xlink="http://www.w3.org/1999/xlink" xmlns:svgjs="http://svgjs.dev/svgjs" id="BgenPttrnSvgRootPreview" width="100%" height="100%"><defs><pattern x="0" y="0" width="1" height="1" patternUnits="userSpaceOnUse" id="BgenPttrnLayer1"><g id="PatternRootContent1"><g id="BgenPttrnLayer1background"><rect width="1" height="1" id="BgenPttrnBackground1" class="color_1 fill_color_1" fill="#17171a"></rect></g></g></pattern><pattern x="0" y="0" width="60" height="104" patternUnits="userSpaceOnUse" id="BgenPttrnLayer2" patternTransform="matrix(0.4,0,0,0.4,0,0)"><g id="PatternRootContent2"><g id="BgenPttrnLayer2Element2"><use xlink:href="#BgenPttrnElement2" x="28.131141662597656" y="-58.636924743652344" transform="translate(60, -26) scale(1) translate(-60, 26) rotate(0, 60, -26)"></use><use xlink:href="#BgenPttrnElement2" x="-31.868858337402344" y="-58.636924743652344" transform="translate(0, -26) scale(1) translate(0, 26) rotate(0, 0, -26)"></use><use xlink:href="#BgenPttrnElement2" x="-1.8688583374023438" y="-6.636924743652344" transform="translate(30, 26) scale(1) translate(-30, -26) rotate(0, 30, 26)"></use><use xlink:href="#BgenPttrnElement2" x="-61.868858337402344" y="-6.636924743652344" transform="translate(-30, 26) scale(1) translate(30, -26) rotate(0, -30, 26)"></use><use xlink:href="#BgenPttrnElement2" x="58.131141662597656" y="-6.636924743652344" transform="translate(90, 26) scale(1) translate(-90, -26) rotate(0, 90, 26)"></use><use xlink:href="#BgenPttrnElement2" x="28.131141662597656" y="45.363075256347656" transform="translate(60, 78) scale(1) translate(-60, -78) rotate(0, 60, 78)"></use><use xlink:href="#BgenPttrnElement2" x="-31.868858337402344" y="45.363075256347656" transform="translate(0, 78) scale(1) translate(0, -78) rotate(0, 0, 78)"></use><use xlink:href="#BgenPttrnElement2" x="-1.8688583374023438" y="97.36307525634766" transform="translate(30, 130) scale(1) translate(-30, -130) rotate(0, 30, 130)"></use><use xlink:href="#BgenPttrnElement2" x="-1.8688583374023438" y="97.36307525634766" transform="translate(30, 130) scale(1) translate(-30, -130) rotate(0, 30, 130)"></use></g></g></pattern><symbol id="BgenPttrnElement2"><g class="color_3 fill_color_3" fill="#1f1e1e"><path d="M20.555,8.485483169555664l19.799,19.799l2.828,-2.828L23.384,5.657055854797363l-2.829,2.828Zm-8.485,2.828l19.799,19.799l2.828,-2.828L14.898,8.485483169555664l-2.828,2.828Zm19.799,-8.485l-2.828,2.828l19.799,19.799l2.828,-2.828L31.869,2.8286285400390625Z" transform="matrix(1,0,0,1,0,0)"></path><path d="M59.597,36.91544723510742l-27.046,7.247l1.035,3.864L60.632,40.77914810180664l-1.035,-3.864Zm1.793,-8.763l-27.046,7.247l1.035,3.864L62.425,32.01646423339844l-1.035,-3.864Zm-2.551,21.389l-1.035,-3.864l-27.046,7.247l1.035,3.864L58.839,49.541831970214844Z" transform="matrix(1,0,0,1,0,0)"></path><path d="M15.455,56.5113639831543l7.247,-27.046l-3.864,-1.035L11.591,55.4760856628418l3.864,1.035Zm6.692,5.934l7.247,-27.046l-3.864,-1.035L18.283,61.410343170166016l3.864,1.035Zm-17.248,-12.904l3.864,1.035l7.247,-27.046l-3.864,-1.035L4.899,49.541831970214844Z" transform="matrix(1,0,0,1,0,0)"></path></g></symbol></defs><rect width="100%" height="100%" id="BgenPttrnRctLayer1" fill="url(&quot;#BgenPttrnLayer1&quot;)"></rect><rect width="100%" height="100%" id="BgenPttrnRctLayer2" fill="url(&quot;#BgenPttrnLayer2&quot;)"></rect></svg>