<svg xmlns="http://www.w3.org/2000/svg" version="1.1" xmlns:xlink="http://www.w3.org/1999/xlink" xmlns:svgjs="http://svgjs.dev/svgjs" id="BgenPttrnSvgRootPreview" width="100%" height="100%"><defs><pattern x="0" y="0" width="1" height="1" patternUnits="userSpaceOnUse" id="BgenPttrnLayer1"><g id="PatternRootContent1"><g id="BgenPttrnLayer1background"><rect width="1" height="1" id="BgenPttrnBackground1" class="color_1 fill_color_1" fill="#17171a"></rect></g></g></pattern><pattern x="0" y="0" width="20" height="20" patternUnits="userSpaceOnUse" id="BgenPttrnLayer2" patternTransform="matrix(1,0,0,1,0,0)"><g id="PatternRootContent2"><g id="BgenPttrnLayer2Element1"><use xlink:href="#BgenPttrnElement1" x="-22" y="-22" transform="translate(-13, -13) scale(1) translate(13, 13) rotate(0, -10, -10)"></use><use xlink:href="#BgenPttrnElement1" x="-2" y="-22" transform="translate(7, -13) scale(1) translate(-7, 13) rotate(0, 10, -10)"></use><use xlink:href="#BgenPttrnElement1" x="-2" y="-2" transform="translate(7, 7) scale(1) translate(-7, -7) rotate(0, 10, 10)"></use><use xlink:href="#BgenPttrnElement1" x="-22" y="-2" transform="translate(-13, 7) scale(1) translate(13, -7) rotate(0, -10, 10)"></use><use xlink:href="#BgenPttrnElement1" x="18" y="-2" transform="translate(27, 7) scale(1) translate(-27, -7) rotate(0, 30, 10)"></use><use xlink:href="#BgenPttrnElement1" x="-2" y="18" transform="translate(7, 27) scale(1) translate(-7, -27) rotate(0, 10, 30)"></use><use xlink:href="#BgenPttrnElement1" x="-2" y="18" transform="translate(7, 27) scale(1) translate(-7, -27) rotate(0, 10, 30)"></use></g></g></pattern><symbol id="BgenPttrnElement1"><path d="M3 21H11V13H3M5 15H9V19H5M3 11H11V3H3M5 5H9V9H5M13 3V11H21V3M19 9H15V5H19M18 16H21V18H18V21H16V18H13V16H16V13H18Z" class="color_2 fill_color_2" fill="#eae5d4"></path></symbol></defs><rect width="100%" height="100%" id="BgenPttrnRctLayer1" fill="url(&quot;#BgenPttrnLayer1&quot;)"></rect><rect width="100%" height="100%" id="BgenPttrnRctLayer2" fill="url(&quot;#BgenPttrnLayer2&quot;)"></rect></svg>