<?xml version="1.0" standalone="no"?>
  <!DOCTYPE svg PUBLIC "-//W3C//DTD SVG 1.1//EN" "http://www.w3.org/Graphics/SVG/1.1/DTD/svg11.dtd" >
  <svg>
  <metadata>
  Created by font-carrier
  </metadata>
  <defs>
  <font id="PressStart2P-Regular" horiz-adv-x="1000" vert-adv-y="1000" >
    <font-face
      
      font-family="Press Start 2P"
      
      font-weight="400"
      
      font-stretch="normal"
      
      units-per-em="1000"
      
      ascent="1000"
      
      descent="0"
      
    />
      <missing-glyph />

      

      
      <glyph glyph-name="uni41" unicode="&#x41;" d="M0 125L0 750L125 750L125 875L250 875L250 1000L625 1000L625 875L750 875L750 750L875 750L875 125L625 125L625 375L250 375L250 125L0 125M250 500L625 500L625 750L500 750L500 875L375 875L375 750L250 750L250 500Z"  horiz-adv-x="1000" vert-adv-y="1000"  />

      
      <glyph glyph-name="unic1" unicode="&#xc1;" d="M625 875L500 875L500 1000L625 1000L625 875M875 500L875 125L625 125L625 250L250 250L250 125L0 125L0 500L125 500L125 625L250 625L250 750L375 750L375 875L500 875L500 750L625 750L625 625L750 625L750 500L875 500M625 500L500 500L500 625L375 625L375 500L250 500L250 375L625 375L625 500Z"  horiz-adv-x="1000" vert-adv-y="1000"  />

      
      <glyph glyph-name="uni0102" unicode="&#x0102;" d="M250 1000L250 875L125 875L125 1000L250 1000M750 875L625 875L625 1000L750 1000L750 875M875 500L875 125L625 125L625 250L250 250L250 125L0 125L0 500L125 500L125 625L250 625L250 875L625 875L625 625L750 625L750 500L875 500M625 500L500 500L500 625L375 625L375 500L250 500L250 375L625 375L625 500Z"  horiz-adv-x="1000" vert-adv-y="1000"  />

      
      <glyph glyph-name="unic2" unicode="&#xc2;" d="M0 125L0 500L125 500L125 625L250 625L250 750L125 750L125 875L250 875L250 1000L625 1000L625 875L750 875L750 750L625 750L625 625L750 625L750 500L875 500L875 125L625 125L625 250L250 250L250 125L0 125M375 750L500 750L500 875L375 875L375 750M250 375L625 375L625 500L500 500L500 625L375 625L375 500L250 500L250 375Z"  horiz-adv-x="1000" vert-adv-y="1000"  />

      
      <glyph glyph-name="unic4" unicode="&#xc4;" d="M125 875L125 1000L375 1000L375 875L125 875M500 875L500 1000L750 1000L750 875L500 875M0 125L0 500L125 500L125 625L250 625L250 750L625 750L625 625L750 625L750 500L875 500L875 125L625 125L625 250L250 250L250 125L0 125M250 375L625 375L625 500L500 500L500 625L375 625L375 500L250 500L250 375Z"  horiz-adv-x="1000" vert-adv-y="1000"  />

      
      <glyph glyph-name="unic0" unicode="&#xc0;" d="M375 1000L375 875L250 875L250 1000L375 1000M875 500L875 125L625 125L625 250L250 250L250 125L0 125L0 500L125 500L125 625L250 625L250 750L375 750L375 875L500 875L500 750L625 750L625 625L750 625L750 500L875 500M625 500L500 500L500 625L375 625L375 500L250 500L250 375L625 375L625 500Z"  horiz-adv-x="1000" vert-adv-y="1000"  />

      
      <glyph glyph-name="uni0100" unicode="&#x0100;" d="M125 875L125 1000L750 1000L750 875L125 875M0 125L0 500L125 500L125 625L250 625L250 750L625 750L625 625L750 625L750 500L875 500L875 125L625 125L625 250L250 250L250 125L0 125M250 375L625 375L625 500L500 500L500 625L375 625L375 500L250 500L250 375Z"  horiz-adv-x="1000" vert-adv-y="1000"  />

      
      <glyph glyph-name="uni0104" unicode="&#x0104;" d="M875 750L875 375L750 375L750 250L625 250L625 500L250 500L250 375L0 375L0 750L125 750L125 875L250 875L250 1000L625 1000L625 875L750 875L750 750L875 750M625 750L500 750L500 875L375 875L375 750L250 750L250 625L625 625L625 750M500 250L625 250L625 125L500 125L500 250M625 0L625 125L875 125L875 0L625 0Z"  horiz-adv-x="1000" vert-adv-y="1000"  />

      
      <glyph glyph-name="unic5" unicode="&#xc5;" d="M0 125L0 500L125 500L125 625L250 625L250 875L375 875L375 1000L500 1000L500 875L625 875L625 625L750 625L750 500L875 500L875 125L625 125L625 250L250 250L250 125L0 125M375 750L500 750L500 875L375 875L375 750M250 375L625 375L625 500L500 500L500 625L375 625L375 500L250 500L250 375Z"  horiz-adv-x="1000" vert-adv-y="1000"  />

      
      <glyph glyph-name="unic3" unicode="&#xc3;" d="M875 500L875 125L625 125L625 250L250 250L250 125L0 125L0 500L125 500L125 625L250 625L250 750L375 750L375 875L250 875L250 1000L500 1000L500 875L625 875L625 625L750 625L750 500L875 500M750 875L625 875L625 1000L750 1000L750 875M250 875L250 750L125 750L125 875L250 875M625 500L500 500L500 625L375 625L375 500L250 500L250 375L625 375L625 500Z"  horiz-adv-x="1000" vert-adv-y="1000"  />

      
      <glyph glyph-name="unic6" unicode="&#xc6;" d="M0 125L0 750L125 750L125 875L250 875L250 1000L875 1000L875 875L625 875L625 625L875 625L875 500L625 500L625 250L875 250L875 125L375 125L375 375L250 375L250 125L0 125M250 500L375 500L375 750L250 750L250 500Z"  horiz-adv-x="1000" vert-adv-y="1000"  />

      
      <glyph glyph-name="uni42" unicode="&#x42;" d="M0 125L0 1000L750 1000L750 875L875 875L875 625L750 625L750 500L875 500L875 250L750 250L750 125L0 125M250 625L625 625L625 875L250 875L250 625M250 250L625 250L625 500L250 500L250 250Z"  horiz-adv-x="1000" vert-adv-y="1000"  />

      
      <glyph glyph-name="uni43" unicode="&#x43;" d="M250 125L250 250L125 250L125 375L0 375L0 750L125 750L125 875L250 875L250 1000L750 1000L750 875L875 875L875 750L625 750L625 875L375 875L375 750L250 750L250 375L375 375L375 250L625 250L625 375L875 375L875 250L750 250L750 125L250 125Z"  horiz-adv-x="1000" vert-adv-y="1000"  />

      
      <glyph glyph-name="uni0106" unicode="&#x0106;" d="M625 875L500 875L500 1000L625 1000L625 875M875 625L875 500L625 500L625 625L375 625L375 500L250 500L250 375L375 375L375 250L625 250L625 375L875 375L875 250L750 250L750 125L250 125L250 250L125 250L125 375L0 375L0 500L125 500L125 625L250 625L250 750L375 750L375 875L500 875L500 750L750 750L750 625L875 625Z"  horiz-adv-x="1000" vert-adv-y="1000"  />

      
      <glyph glyph-name="uni010C" unicode="&#x010C;" d="M250 125L250 250L125 250L125 375L0 375L0 500L125 500L125 625L250 625L250 875L125 875L125 1000L375 1000L375 875L625 875L625 1000L875 1000L875 875L750 875L750 625L875 625L875 500L625 500L625 625L375 625L375 500L250 500L250 375L375 375L375 250L625 250L625 375L875 375L875 250L750 250L750 125L250 125Z"  horiz-adv-x="1000" vert-adv-y="1000"  />

      
      <glyph glyph-name="unic7" unicode="&#xc7;" d="M875 875L875 750L625 750L625 875L375 875L375 750L250 750L250 500L375 500L375 375L625 375L625 500L875 500L875 375L750 375L750 250L625 250L625 125L500 125L500 250L250 250L250 375L125 375L125 500L0 500L0 750L125 750L125 875L250 875L250 1000L750 1000L750 875L875 875M250 125L500 125L500 0L250 0L250 125Z"  horiz-adv-x="1000" vert-adv-y="1000"  />

      
      <glyph glyph-name="uni0108" unicode="&#x0108;" d="M250 125L250 250L125 250L125 375L0 375L0 500L125 500L125 625L250 625L250 750L125 750L125 875L250 875L250 1000L625 1000L625 875L750 875L750 625L875 625L875 500L625 500L625 625L375 625L375 500L250 500L250 375L375 375L375 250L625 250L625 375L875 375L875 250L750 250L750 125L250 125M375 750L500 750L500 875L375 875L375 750Z"  horiz-adv-x="1000" vert-adv-y="1000"  />

      
      <glyph glyph-name="uni010A" unicode="&#x010A;" d="M375 875L375 1000L625 1000L625 875L375 875M250 125L250 250L125 250L125 375L0 375L0 500L125 500L125 625L250 625L250 750L750 750L750 625L875 625L875 500L625 500L625 625L375 625L375 500L250 500L250 375L375 375L375 250L625 250L625 375L875 375L875 250L750 250L750 125L250 125Z"  horiz-adv-x="1000" vert-adv-y="1000"  />

      
      <glyph glyph-name="uni44" unicode="&#x44;" d="M0 125L0 1000L625 1000L625 875L750 875L750 750L875 750L875 375L750 375L750 250L625 250L625 125L0 125M250 250L500 250L500 375L625 375L625 750L500 750L500 875L250 875L250 250Z"  horiz-adv-x="1000" vert-adv-y="1000"  />

      
      <glyph glyph-name="unid0" unicode="&#xd0;" d="M125 125L125 500L0 500L0 625L125 625L125 1000L625 1000L625 875L750 875L750 750L875 750L875 375L750 375L750 250L625 250L625 125L125 125M375 250L500 250L500 375L625 375L625 750L500 750L500 875L375 875L375 625L500 625L500 500L375 500L375 250Z"  horiz-adv-x="1000" vert-adv-y="1000"  />

      
      <glyph glyph-name="uni010E" unicode="&#x010E;" d="M0 125L0 750L250 750L250 875L125 875L125 1000L375 1000L375 875L500 875L500 1000L750 1000L750 875L625 875L625 625L750 625L750 500L875 500L875 375L750 375L750 250L625 250L625 125L0 125M250 250L500 250L500 375L625 375L625 500L500 500L500 625L250 625L250 250Z"  horiz-adv-x="1000" vert-adv-y="1000"  />

      
      <glyph glyph-name="uni0110" unicode="&#x0110;" d="M125 125L125 500L0 500L0 625L125 625L125 1000L625 1000L625 875L750 875L750 750L875 750L875 375L750 375L750 250L625 250L625 125L125 125M375 250L500 250L500 375L625 375L625 750L500 750L500 875L375 875L375 625L500 625L500 500L375 500L375 250Z"  horiz-adv-x="1000" vert-adv-y="1000"  />

      
      <glyph glyph-name="uni45" unicode="&#x45;" d="M0 125L0 1000L875 1000L875 875L250 875L250 625L750 625L750 500L250 500L250 250L875 250L875 125L0 125Z"  horiz-adv-x="1000" vert-adv-y="1000"  />

      
      <glyph glyph-name="unic9" unicode="&#xc9;" d="M625 875L500 875L500 1000L625 1000L625 875M875 750L875 625L250 625L250 500L750 500L750 375L250 375L250 250L875 250L875 125L0 125L0 750L375 750L375 875L500 875L500 750L875 750Z"  horiz-adv-x="1000" vert-adv-y="1000"  />

      
      <glyph glyph-name="uni0114" unicode="&#x0114;" d="M250 1000L250 875L125 875L125 1000L250 1000M750 875L625 875L625 1000L750 1000L750 875M875 750L875 625L250 625L250 500L750 500L750 375L250 375L250 250L875 250L875 125L0 125L0 750L250 750L250 875L625 875L625 750L875 750Z"  horiz-adv-x="1000" vert-adv-y="1000"  />

      
      <glyph glyph-name="uni011A" unicode="&#x011A;" d="M0 125L0 750L250 750L250 875L125 875L125 1000L375 1000L375 875L500 875L500 1000L750 1000L750 875L625 875L625 750L875 750L875 625L250 625L250 500L750 500L750 375L250 375L250 250L875 250L875 125L0 125Z"  horiz-adv-x="1000" vert-adv-y="1000"  />

      
      <glyph glyph-name="unica" unicode="&#xca;" d="M0 125L0 750L125 750L125 875L250 875L250 1000L625 1000L625 875L750 875L750 750L875 750L875 625L250 625L250 500L750 500L750 375L250 375L250 250L875 250L875 125L0 125M375 750L500 750L500 875L375 875L375 750Z"  horiz-adv-x="1000" vert-adv-y="1000"  />

      
      <glyph glyph-name="unicb" unicode="&#xcb;" d="M125 875L125 1000L375 1000L375 875L125 875M500 875L500 1000L750 1000L750 875L500 875M0 125L0 750L875 750L875 625L250 625L250 500L750 500L750 375L250 375L250 250L875 250L875 125L0 125Z"  horiz-adv-x="1000" vert-adv-y="1000"  />

      
      <glyph glyph-name="uni0116" unicode="&#x0116;" d="M375 875L375 1000L625 1000L625 875L375 875M0 125L0 750L875 750L875 625L250 625L250 500L750 500L750 375L250 375L250 250L875 250L875 125L0 125Z"  horiz-adv-x="1000" vert-adv-y="1000"  />

      
      <glyph glyph-name="unic8" unicode="&#xc8;" d="M375 1000L375 875L250 875L250 1000L375 1000M875 750L875 625L250 625L250 500L750 500L750 375L250 375L250 250L875 250L875 125L0 125L0 750L375 750L375 875L500 875L500 750L875 750Z"  horiz-adv-x="1000" vert-adv-y="1000"  />

      
      <glyph glyph-name="uni0112" unicode="&#x0112;" d="M125 875L125 1000L750 1000L750 875L125 875M0 125L0 750L875 750L875 625L250 625L250 500L750 500L750 375L250 375L250 250L875 250L875 125L0 125Z"  horiz-adv-x="1000" vert-adv-y="1000"  />

      
      <glyph glyph-name="uni0118" unicode="&#x0118;" d="M875 1000L875 875L250 875L250 750L750 750L750 625L250 625L250 500L875 500L875 375L500 375L500 250L375 250L375 375L0 375L0 1000L875 1000M250 250L375 250L375 125L250 125L250 250M375 0L375 125L625 125L625 0L375 0Z"  horiz-adv-x="1000" vert-adv-y="1000"  />

      
      <glyph glyph-name="uni46" unicode="&#x46;" d="M0 125L0 1000L875 1000L875 875L250 875L250 625L750 625L750 500L250 500L250 125L0 125Z"  horiz-adv-x="1000" vert-adv-y="1000"  />

      
      <glyph glyph-name="uni47" unicode="&#x47;" d="M250 125L250 250L125 250L125 375L0 375L0 750L125 750L125 875L250 875L250 1000L875 1000L875 875L375 875L375 750L250 750L250 375L375 375L375 250L625 250L625 500L500 500L500 625L875 625L875 125L250 125Z"  horiz-adv-x="1000" vert-adv-y="1000"  />

      
      <glyph glyph-name="uni011E" unicode="&#x011E;" d="M250 1000L250 875L125 875L125 1000L250 1000M750 875L625 875L625 1000L750 1000L750 875M875 750L875 625L250 625L250 250L625 250L625 375L500 375L500 500L875 500L875 125L125 125L125 250L0 250L0 625L125 625L125 750L250 750L250 875L625 875L625 750L875 750Z"  horiz-adv-x="1000" vert-adv-y="1000"  />

      
      <glyph glyph-name="uni011C" unicode="&#x011C;" d="M125 125L125 250L0 250L0 625L125 625L125 875L250 875L250 1000L625 1000L625 875L750 875L750 750L875 750L875 625L250 625L250 250L625 250L625 375L500 375L500 500L875 500L875 125L125 125M375 750L500 750L500 875L375 875L375 750Z"  horiz-adv-x="1000" vert-adv-y="1000"  />

      
      <glyph glyph-name="uni0122" unicode="&#x0122;" d="M250 0L250 125L375 125L375 250L250 250L250 375L125 375L125 500L0 500L0 750L125 750L125 875L250 875L250 1000L875 1000L875 875L375 875L375 750L250 750L250 500L375 500L375 375L625 375L625 500L500 500L500 625L875 625L875 250L625 250L625 125L500 125L500 0L250 0Z"  horiz-adv-x="1000" vert-adv-y="1000"  />

      
      <glyph glyph-name="uni0120" unicode="&#x0120;" d="M375 875L375 1000L625 1000L625 875L375 875M125 125L125 250L0 250L0 625L125 625L125 750L875 750L875 625L250 625L250 250L625 250L625 375L500 375L500 500L875 500L875 125L125 125Z"  horiz-adv-x="1000" vert-adv-y="1000"  />

      
      <glyph glyph-name="uni48" unicode="&#x48;" d="M0 125L0 1000L250 1000L250 625L625 625L625 1000L875 1000L875 125L625 125L625 500L250 500L250 125L0 125Z"  horiz-adv-x="1000" vert-adv-y="1000"  />

      
      <glyph glyph-name="uni0126" unicode="&#x0126;" d="M0 125L0 1000L250 1000L250 875L625 875L625 1000L875 1000L875 125L625 125L625 500L250 500L250 125L0 125M250 625L625 625L625 750L250 750L250 625Z"  horiz-adv-x="1000" vert-adv-y="1000"  />

      
      <glyph glyph-name="uni0124" unicode="&#x0124;" d="M0 125L0 875L250 875L250 1000L625 1000L625 875L875 875L875 125L625 125L625 375L250 375L250 125L0 125M250 500L625 500L625 750L500 750L500 875L375 875L375 750L250 750L250 500Z"  horiz-adv-x="1000" vert-adv-y="1000"  />

      
      <glyph glyph-name="uni49" unicode="&#x49;" d="M125 125L125 250L375 250L375 875L125 875L125 1000L875 1000L875 875L625 875L625 250L875 250L875 125L125 125Z"  horiz-adv-x="1000" vert-adv-y="1000"  />

      
      <glyph glyph-name="uni0132" unicode="&#x0132;" d="M0 375L0 500L125 500L125 875L0 875L0 1000L500 1000L500 875L375 875L375 500L500 500L500 375L0 375M125 125L125 250L625 250L625 1000L875 1000L875 250L750 250L750 125L125 125Z"  horiz-adv-x="1000" vert-adv-y="1000"  />

      
      <glyph glyph-name="unicd" unicode="&#xcd;" d="M625 875L500 875L500 1000L625 1000L625 875M875 750L875 625L625 625L625 250L875 250L875 125L125 125L125 250L375 250L375 625L125 625L125 750L375 750L375 875L500 875L500 750L875 750Z"  horiz-adv-x="1000" vert-adv-y="1000"  />

      
      <glyph glyph-name="uni012C" unicode="&#x012C;" d="M375 1000L375 875L250 875L250 1000L375 1000M750 875L625 875L625 1000L750 1000L750 875M875 750L875 625L625 625L625 250L875 250L875 125L125 125L125 250L375 250L375 625L125 625L125 750L375 750L375 875L625 875L625 750L875 750Z"  horiz-adv-x="1000" vert-adv-y="1000"  />

      
      <glyph glyph-name="unice" unicode="&#xce;" d="M125 125L125 250L375 250L375 625L125 625L125 750L250 750L250 875L375 875L375 1000L625 1000L625 875L750 875L750 750L875 750L875 625L625 625L625 250L875 250L875 125L125 125Z"  horiz-adv-x="1000" vert-adv-y="1000"  />

      
      <glyph glyph-name="unicf" unicode="&#xcf;" d="M125 875L125 1000L375 1000L375 875L125 875M625 875L625 1000L875 1000L875 875L625 875M125 125L125 250L375 250L375 625L125 625L125 750L875 750L875 625L625 625L625 250L875 250L875 125L125 125Z"  horiz-adv-x="1000" vert-adv-y="1000"  />

      
      <glyph glyph-name="uni0130" unicode="&#x0130;" d="M375 875L375 1000L625 1000L625 875L375 875M125 125L125 250L375 250L375 625L125 625L125 750L875 750L875 625L625 625L625 250L875 250L875 125L125 125Z"  horiz-adv-x="1000" vert-adv-y="1000"  />

      
      <glyph glyph-name="unicc" unicode="&#xcc;" d="M500 1000L500 875L375 875L375 1000L500 1000M875 750L875 625L625 625L625 250L875 250L875 125L125 125L125 250L375 250L375 625L125 625L125 750L500 750L500 875L625 875L625 750L875 750Z"  horiz-adv-x="1000" vert-adv-y="1000"  />

      
      <glyph glyph-name="uni012A" unicode="&#x012A;" d="M125 875L125 1000L875 1000L875 875L125 875M125 125L125 250L375 250L375 625L125 625L125 750L875 750L875 625L625 625L625 250L875 250L875 125L125 125Z"  horiz-adv-x="1000" vert-adv-y="1000"  />

      
      <glyph glyph-name="uni012E" unicode="&#x012E;" d="M875 1000L875 875L625 875L625 500L875 500L875 375L500 375L500 250L375 250L375 375L125 375L125 500L375 500L375 875L125 875L125 1000L875 1000M250 250L375 250L375 125L250 125L250 250M375 0L375 125L625 125L625 0L375 0Z"  horiz-adv-x="1000" vert-adv-y="1000"  />

      
      <glyph glyph-name="uni0128" unicode="&#x0128;" d="M500 875L250 875L250 1000L500 1000L500 875M875 1000L875 875L750 875L750 1000L875 1000M500 875L750 875L750 750L875 750L875 625L625 625L625 250L875 250L875 125L125 125L125 250L375 250L375 625L125 625L125 875L250 875L250 750L500 750L500 875Z"  horiz-adv-x="1000" vert-adv-y="1000"  />

      
      <glyph glyph-name="uni4a" unicode="&#x4a;" d="M125 125L125 250L0 250L0 375L250 375L250 250L625 250L625 1000L875 1000L875 250L750 250L750 125L125 125Z"  horiz-adv-x="1000" vert-adv-y="1000"  />

      
      <glyph glyph-name="uni0134" unicode="&#x0134;" d="M125 125L125 250L0 250L0 375L250 375L250 250L625 250L625 875L500 875L500 750L250 750L250 875L375 875L375 1000L750 1000L750 875L875 875L875 250L750 250L750 125L125 125Z"  horiz-adv-x="1000" vert-adv-y="1000"  />

      
      <glyph glyph-name="uni4b" unicode="&#x4b;" d="M0 125L0 1000L250 1000L250 625L375 625L375 750L500 750L500 875L625 875L625 1000L875 1000L875 875L750 875L750 750L625 750L625 625L500 625L500 500L625 500L625 375L750 375L750 250L875 250L875 125L500 125L500 250L375 250L375 375L250 375L250 125L0 125Z"  horiz-adv-x="1000" vert-adv-y="1000"  />

      
      <glyph glyph-name="uni0136" unicode="&#x0136;" d="M125 0L125 125L250 125L250 250L0 250L0 1000L250 1000L250 750L375 750L375 875L500 875L500 1000L750 1000L750 875L625 875L625 750L500 750L500 625L625 625L625 500L750 500L750 375L875 375L875 250L500 250L500 125L375 125L375 0L125 0M250 250L500 250L500 375L375 375L375 500L250 500L250 250Z"  horiz-adv-x="1000" vert-adv-y="1000"  />

      
      <glyph glyph-name="uni4c" unicode="&#x4c;" d="M125 125L125 1000L375 1000L375 250L875 250L875 125L125 125Z"  horiz-adv-x="1000" vert-adv-y="1000"  />

      
      <glyph glyph-name="uni0139" unicode="&#x0139;" d="M625 875L500 875L500 1000L625 1000L625 875M875 250L875 125L125 125L125 875L500 875L500 750L375 750L375 250L875 250Z"  horiz-adv-x="1000" vert-adv-y="1000"  />

      
      <glyph glyph-name="uni013D" unicode="&#x013D;" d="M125 125L125 1000L375 1000L375 250L875 250L875 125L125 125M625 625L625 1000L875 1000L875 750L750 750L750 625L625 625Z"  horiz-adv-x="1000" vert-adv-y="1000"  />

      
      <glyph glyph-name="uni013B" unicode="&#x013B;" d="M250 0L250 125L375 125L375 250L125 250L125 1000L375 1000L375 375L875 375L875 250L625 250L625 125L500 125L500 0L250 0Z"  horiz-adv-x="1000" vert-adv-y="1000"  />

      
      <glyph glyph-name="uni013F" unicode="&#x013F;" d="M125 125L125 1000L375 1000L375 250L875 250L875 125L125 125M500 500L500 750L750 750L750 500L500 500Z"  horiz-adv-x="1000" vert-adv-y="1000"  />

      
      <glyph glyph-name="uni0141" unicode="&#x0141;" d="M125 125L125 500L0 500L0 625L125 625L125 1000L375 1000L375 750L500 750L500 625L375 625L375 250L875 250L875 125L125 125Z"  horiz-adv-x="1000" vert-adv-y="1000"  />

      
      <glyph glyph-name="uni4d" unicode="&#x4d;" d="M0 125L0 1000L250 1000L250 875L375 875L375 750L500 750L500 875L625 875L625 1000L875 1000L875 125L625 125L625 625L500 625L500 375L375 375L375 625L250 625L250 125L0 125Z"  horiz-adv-x="1000" vert-adv-y="1000"  />

      
      <glyph glyph-name="uni4e" unicode="&#x4e;" d="M0 125L0 1000L250 1000L250 875L375 875L375 750L500 750L500 625L625 625L625 1000L875 1000L875 125L625 125L625 375L500 375L500 500L375 500L375 625L250 625L250 125L0 125Z"  horiz-adv-x="1000" vert-adv-y="1000"  />

      
      <glyph glyph-name="uni0143" unicode="&#x0143;" d="M625 875L500 875L500 1000L625 1000L625 875M500 750L375 750L375 875L500 875L500 750M875 750L875 125L500 125L500 250L375 250L375 375L250 375L250 125L0 125L0 750L375 750L375 625L500 625L500 500L625 500L625 750L875 750Z"  horiz-adv-x="1000" vert-adv-y="1000"  />

      
      <glyph glyph-name="uni0147" unicode="&#x0147;" d="M875 750L875 125L500 125L500 250L375 250L375 375L250 375L250 125L0 125L0 750L250 750L250 875L125 875L125 1000L375 1000L375 875L500 875L500 1000L750 1000L750 875L625 875L625 750L375 750L375 625L500 625L500 500L625 500L625 750L875 750Z"  horiz-adv-x="1000" vert-adv-y="1000"  />

      
      <glyph glyph-name="uni0145" unicode="&#x0145;" d="M875 1000L875 250L625 250L625 375L500 375L500 500L375 500L375 625L250 625L250 250L0 250L0 1000L375 1000L375 875L500 875L500 750L625 750L625 1000L875 1000M375 250L625 250L625 125L500 125L500 0L250 0L250 125L375 125L375 250Z"  horiz-adv-x="1000" vert-adv-y="1000"  />

      
      <glyph glyph-name="uni014A" unicode="&#x014A;" d="M250 0L250 125L625 125L625 375L500 375L500 500L375 500L375 625L250 625L250 250L0 250L0 1000L375 1000L375 875L500 875L500 750L625 750L625 1000L875 1000L875 125L750 125L750 0L250 0Z"  horiz-adv-x="1000" vert-adv-y="1000"  />

      
      <glyph glyph-name="unid1" unicode="&#xd1;" d="M375 875L250 875L250 1000L500 1000L500 875L625 875L625 750L375 750L375 875M750 875L625 875L625 1000L750 1000L750 875M875 750L875 125L500 125L500 250L375 250L375 375L250 375L250 125L0 125L0 750L125 750L125 875L250 875L250 750L375 750L375 625L500 625L500 500L625 500L625 750L875 750Z"  horiz-adv-x="1000" vert-adv-y="1000"  />

      
      <glyph glyph-name="uni4f" unicode="&#x4f;" d="M125 125L125 250L0 250L0 875L125 875L125 1000L750 1000L750 875L875 875L875 250L750 250L750 125L125 125M250 250L625 250L625 875L250 875L250 250Z"  horiz-adv-x="1000" vert-adv-y="1000"  />

      
      <glyph glyph-name="unid3" unicode="&#xd3;" d="M625 875L500 875L500 1000L625 1000L625 875M875 625L875 250L750 250L750 125L125 125L125 250L0 250L0 625L125 625L125 750L375 750L375 875L500 875L500 750L750 750L750 625L875 625M625 625L250 625L250 250L625 250L625 625Z"  horiz-adv-x="1000" vert-adv-y="1000"  />

      
      <glyph glyph-name="uni014E" unicode="&#x014E;" d="M250 1000L250 875L125 875L125 1000L250 1000M750 875L625 875L625 1000L750 1000L750 875M875 625L875 250L750 250L750 125L125 125L125 250L0 250L0 625L125 625L125 750L250 750L250 875L625 875L625 750L750 750L750 625L875 625M625 625L250 625L250 250L625 250L625 625Z"  horiz-adv-x="1000" vert-adv-y="1000"  />

      
      <glyph glyph-name="unid4" unicode="&#xd4;" d="M125 125L125 250L0 250L0 625L125 625L125 875L250 875L250 1000L625 1000L625 875L750 875L750 625L875 625L875 250L750 250L750 125L125 125M375 750L500 750L500 875L375 875L375 750M250 250L625 250L625 625L250 625L250 250Z"  horiz-adv-x="1000" vert-adv-y="1000"  />

      
      <glyph glyph-name="unid6" unicode="&#xd6;" d="M125 875L125 1000L375 1000L375 875L125 875M500 875L500 1000L750 1000L750 875L500 875M125 125L125 250L0 250L0 625L125 625L125 750L750 750L750 625L875 625L875 250L750 250L750 125L125 125M250 250L625 250L625 625L250 625L250 250Z"  horiz-adv-x="1000" vert-adv-y="1000"  />

      
      <glyph glyph-name="unid2" unicode="&#xd2;" d="M375 1000L375 875L250 875L250 1000L375 1000M875 625L875 250L750 250L750 125L125 125L125 250L0 250L0 625L125 625L125 750L375 750L375 875L500 875L500 750L750 750L750 625L875 625M625 625L250 625L250 250L625 250L625 625Z"  horiz-adv-x="1000" vert-adv-y="1000"  />

      
      <glyph glyph-name="uni0150" unicode="&#x0150;" d="M375 875L250 875L250 1000L375 1000L375 875M750 875L625 875L625 1000L750 1000L750 875M875 625L875 250L750 250L750 125L125 125L125 250L0 250L0 625L125 625L125 875L250 875L250 750L500 750L500 875L625 875L625 750L750 750L750 625L875 625M625 625L250 625L250 250L625 250L625 625Z"  horiz-adv-x="1000" vert-adv-y="1000"  />

      
      <glyph glyph-name="uni014C" unicode="&#x014C;" d="M125 875L125 1000L750 1000L750 875L125 875M125 125L125 250L0 250L0 625L125 625L125 750L750 750L750 625L875 625L875 250L750 250L750 125L125 125M250 250L625 250L625 625L250 625L250 250Z"  horiz-adv-x="1000" vert-adv-y="1000"  />

      
      <glyph glyph-name="unid8" unicode="&#xd8;" d="M125 125L125 250L0 250L0 875L125 875L125 1000L750 1000L750 875L875 875L875 250L750 250L750 125L125 125M250 250L625 250L625 625L500 625L500 750L625 750L625 875L250 875L250 500L375 500L375 375L250 375L250 250M375 500L375 625L500 625L500 500L375 500Z"  horiz-adv-x="1000" vert-adv-y="1000"  />

      
      <glyph glyph-name="unid5" unicode="&#xd5;" d="M125 125L125 250L0 250L0 625L125 625L125 875L250 875L250 1000L500 1000L500 875L625 875L625 1000L750 1000L750 875L625 875L625 750L750 750L750 625L875 625L875 250L750 250L750 125L125 125M250 750L375 750L375 875L250 875L250 750M250 250L625 250L625 625L250 625L250 250Z"  horiz-adv-x="1000" vert-adv-y="1000"  />

      
      <glyph glyph-name="uni0152" unicode="&#x0152;" d="M125 125L125 250L0 250L0 875L125 875L125 1000L875 1000L875 875L625 875L625 625L875 625L875 500L625 500L625 250L875 250L875 125L125 125M250 250L375 250L375 875L250 875L250 250Z"  horiz-adv-x="1000" vert-adv-y="1000"  />

      
      <glyph glyph-name="uni50" unicode="&#x50;" d="M0 125L0 1000L750 1000L750 875L875 875L875 500L750 500L750 375L250 375L250 125L0 125M250 500L625 500L625 875L250 875L250 500Z"  horiz-adv-x="1000" vert-adv-y="1000"  />

      
      <glyph glyph-name="unide" unicode="&#xde;" d="M0 125L0 1000L250 1000L250 875L750 875L750 750L875 750L875 375L750 375L750 250L250 250L250 125L0 125M250 375L625 375L625 750L250 750L250 375Z"  horiz-adv-x="1000" vert-adv-y="1000"  />

      
      <glyph glyph-name="uni51" unicode="&#x51;" d="M875 875L875 375L750 375L750 250L625 250L625 125L125 125L125 250L0 250L0 875L125 875L125 1000L750 1000L750 875L875 875M625 875L250 875L250 250L500 250L500 375L375 375L375 500L625 500L625 875M750 125L750 250L875 250L875 125L750 125Z"  horiz-adv-x="1000" vert-adv-y="1000"  />

      
      <glyph glyph-name="uni52" unicode="&#x52;" d="M0 125L0 1000L750 1000L750 875L875 875L875 500L625 500L625 375L750 375L750 250L875 250L875 125L500 125L500 250L375 250L375 375L250 375L250 125L0 125M250 500L500 500L500 625L625 625L625 875L250 875L250 500Z"  horiz-adv-x="1000" vert-adv-y="1000"  />

      
      <glyph glyph-name="uni0154" unicode="&#x0154;" d="M625 875L500 875L500 1000L625 1000L625 875M875 625L875 500L625 500L625 375L750 375L750 250L875 250L875 125L500 125L500 250L375 250L375 375L250 375L250 125L0 125L0 750L375 750L375 875L500 875L500 750L750 750L750 625L875 625M500 625L250 625L250 500L500 500L500 625Z"  horiz-adv-x="1000" vert-adv-y="1000"  />

      
      <glyph glyph-name="uni0158" unicode="&#x0158;" d="M375 1000L375 875L250 875L250 1000L375 1000M625 875L500 875L500 1000L625 1000L625 875M875 625L875 500L625 500L625 375L750 375L750 250L875 250L875 125L500 125L500 250L375 250L375 375L250 375L250 125L0 125L0 750L375 750L375 875L500 875L500 750L750 750L750 625L875 625M500 625L250 625L250 500L500 500L500 625Z"  horiz-adv-x="1000" vert-adv-y="1000"  />

      
      <glyph glyph-name="uni0156" unicode="&#x0156;" d="M250 0L250 125L375 125L375 250L500 250L500 375L375 375L375 500L250 500L250 250L0 250L0 1000L750 1000L750 875L875 875L875 625L625 625L625 500L750 500L750 375L875 375L875 250L625 250L625 125L500 125L500 0L250 0M250 625L500 625L500 750L625 750L625 875L250 875L250 625Z"  horiz-adv-x="1000" vert-adv-y="1000"  />

      
      <glyph glyph-name="uni53" unicode="&#x53;" d="M125 125L125 250L0 250L0 375L250 375L250 250L625 250L625 500L125 500L125 625L0 625L0 875L125 875L125 1000L750 1000L750 875L875 875L875 750L625 750L625 875L250 875L250 625L750 625L750 500L875 500L875 250L750 250L750 125L125 125Z"  horiz-adv-x="1000" vert-adv-y="1000"  />

      
      <glyph glyph-name="uni015A" unicode="&#x015A;" d="M625 875L500 875L500 1000L625 1000L625 875M875 375L875 250L750 250L750 125L0 125L0 250L625 250L625 375L125 375L125 500L0 500L0 625L125 625L125 750L375 750L375 875L500 875L500 750L750 750L750 625L250 625L250 500L750 500L750 375L875 375Z"  horiz-adv-x="1000" vert-adv-y="1000"  />

      
      <glyph glyph-name="uni0160" unicode="&#x0160;" d="M0 125L0 250L625 250L625 375L125 375L125 500L0 500L0 625L125 625L125 750L250 750L250 875L125 875L125 1000L375 1000L375 875L500 875L500 1000L750 1000L750 875L625 875L625 750L750 750L750 625L250 625L250 500L750 500L750 375L875 375L875 250L750 250L750 125L0 125Z"  horiz-adv-x="1000" vert-adv-y="1000"  />

      
      <glyph glyph-name="uni015E" unicode="&#x015E;" d="M875 625L875 375L750 375L750 250L625 250L625 125L500 125L500 250L125 250L125 375L0 375L0 500L250 500L250 375L625 375L625 625L125 625L125 750L0 750L0 875L125 875L125 1000L750 1000L750 875L250 875L250 750L750 750L750 625L875 625M250 125L500 125L500 0L250 0L250 125Z"  horiz-adv-x="1000" vert-adv-y="1000"  />

      
      <glyph glyph-name="uni015C" unicode="&#x015C;" d="M0 125L0 250L625 250L625 375L125 375L125 500L0 500L0 625L125 625L125 875L250 875L250 1000L625 1000L625 875L750 875L750 625L250 625L250 500L750 500L750 375L875 375L875 250L750 250L750 125L0 125M375 750L500 750L500 875L375 875L375 750Z"  horiz-adv-x="1000" vert-adv-y="1000"  />

      
      <glyph glyph-name="uni54" unicode="&#x54;" d="M375 125L375 875L125 875L125 1000L875 1000L875 875L625 875L625 125L375 125Z"  horiz-adv-x="1000" vert-adv-y="1000"  />

      
      <glyph glyph-name="uni0166" unicode="&#x0166;" d="M375 125L375 375L250 375L250 500L375 500L375 875L125 875L125 1000L875 1000L875 875L625 875L625 625L750 625L750 500L625 500L625 125L375 125Z"  horiz-adv-x="1000" vert-adv-y="1000"  />

      
      <glyph glyph-name="uni0164" unicode="&#x0164;" d="M375 1000L375 875L250 875L250 1000L375 1000M750 875L625 875L625 1000L750 1000L750 875M875 750L875 625L625 625L625 125L375 125L375 625L125 625L125 750L375 750L375 875L625 875L625 750L875 750Z"  horiz-adv-x="1000" vert-adv-y="1000"  />

      
      <glyph glyph-name="uni021A" unicode="&#x021A;" d="M875 1000L875 875L625 875L625 125L500 125L500 250L375 250L375 875L125 875L125 1000L875 1000M250 125L500 125L500 0L250 0L250 125Z"  horiz-adv-x="1000" vert-adv-y="1000"  />

      
      <glyph glyph-name="uni55" unicode="&#x55;" d="M125 125L125 250L0 250L0 1000L250 1000L250 250L625 250L625 1000L875 1000L875 250L750 250L750 125L125 125Z"  horiz-adv-x="1000" vert-adv-y="1000"  />

      
      <glyph glyph-name="unida" unicode="&#xda;" d="M625 875L500 875L500 1000L625 1000L625 875M500 750L375 750L375 875L500 875L500 750M875 750L875 250L750 250L750 125L125 125L125 250L0 250L0 750L250 750L250 250L625 250L625 750L875 750Z"  horiz-adv-x="1000" vert-adv-y="1000"  />

      
      <glyph glyph-name="uni016C" unicode="&#x016C;" d="M250 1000L250 875L125 875L125 1000L250 1000M750 875L625 875L625 1000L750 1000L750 875M625 750L250 750L250 875L625 875L625 750M875 750L875 250L750 250L750 125L125 125L125 250L0 250L0 750L250 750L250 250L625 250L625 750L875 750Z"  horiz-adv-x="1000" vert-adv-y="1000"  />

      
      <glyph glyph-name="unidb" unicode="&#xdb;" d="M125 750L125 875L250 875L250 1000L625 1000L625 875L750 875L750 750L500 750L500 875L375 875L375 750L125 750M125 125L125 250L0 250L0 625L250 625L250 250L625 250L625 625L875 625L875 250L750 250L750 125L125 125Z"  horiz-adv-x="1000" vert-adv-y="1000"  />

      
      <glyph glyph-name="unidc" unicode="&#xdc;" d="M125 875L125 1000L375 1000L375 875L125 875M500 875L500 1000L750 1000L750 875L500 875M125 125L125 250L0 250L0 750L250 750L250 250L625 250L625 750L875 750L875 250L750 250L750 125L125 125Z"  horiz-adv-x="1000" vert-adv-y="1000"  />

      
      <glyph glyph-name="unid9" unicode="&#xd9;" d="M375 875L250 875L250 1000L375 1000L375 875M375 750L375 875L500 875L500 750L375 750M875 750L875 250L750 250L750 125L125 125L125 250L0 250L0 750L250 750L250 250L625 250L625 750L875 750Z"  horiz-adv-x="1000" vert-adv-y="1000"  />

      
      <glyph glyph-name="uni0170" unicode="&#x0170;" d="M375 875L250 875L250 1000L375 1000L375 875M750 875L625 875L625 1000L750 1000L750 875M875 750L875 250L750 250L750 125L125 125L125 250L0 250L0 750L125 750L125 875L250 875L250 250L625 250L625 750L875 750M625 875L625 750L500 750L500 875L625 875Z"  horiz-adv-x="1000" vert-adv-y="1000"  />

      
      <glyph glyph-name="uni016A" unicode="&#x016A;" d="M125 875L125 1000L750 1000L750 875L125 875M125 125L125 250L0 250L0 750L250 750L250 250L625 250L625 750L875 750L875 250L750 250L750 125L125 125Z"  horiz-adv-x="1000" vert-adv-y="1000"  />

      
      <glyph glyph-name="uni0172" unicode="&#x0172;" d="M875 1000L875 500L750 500L750 375L500 375L500 250L375 250L375 375L125 375L125 500L0 500L0 1000L250 1000L250 500L625 500L625 1000L875 1000M250 250L375 250L375 125L250 125L250 250M375 0L375 125L625 125L625 0L375 0Z"  horiz-adv-x="1000" vert-adv-y="1000"  />

      
      <glyph glyph-name="uni016E" unicode="&#x016E;" d="M125 125L125 250L0 250L0 750L125 750L125 875L250 875L250 1000L625 1000L625 875L750 875L750 750L875 750L875 250L750 250L750 125L125 125M375 750L500 750L500 875L375 875L375 750M250 250L625 250L625 625L750 625L750 750L625 750L625 625L250 625L250 750L125 750L125 625L250 625L250 250Z"  horiz-adv-x="1000" vert-adv-y="1000"  />

      
      <glyph glyph-name="uni0168" unicode="&#x0168;" d="M375 875L250 875L250 1000L500 1000L500 875L625 875L625 750L375 750L375 875M750 875L625 875L625 1000L750 1000L750 875M875 750L875 250L750 250L750 125L125 125L125 250L0 250L0 750L125 750L125 875L250 875L250 250L625 250L625 750L875 750Z"  horiz-adv-x="1000" vert-adv-y="1000"  />

      
      <glyph glyph-name="uni56" unicode="&#x56;" d="M375 125L375 250L250 250L250 375L125 375L125 500L0 500L0 1000L250 1000L250 625L375 625L375 500L500 500L500 625L625 625L625 1000L875 1000L875 500L750 500L750 375L625 375L625 250L500 250L500 125L375 125Z"  horiz-adv-x="1000" vert-adv-y="1000"  />

      
      <glyph glyph-name="uni57" unicode="&#x57;" d="M125 125L125 250L0 250L0 1000L250 1000L250 500L375 500L375 1000L500 1000L500 500L625 500L625 1000L875 1000L875 250L750 250L750 125L625 125L625 250L500 250L500 375L375 375L375 250L250 250L250 125L125 125Z"  horiz-adv-x="1000" vert-adv-y="1000"  />

      
      <glyph glyph-name="uni0174" unicode="&#x0174;" d="M0 125L0 750L125 750L125 875L250 875L250 1000L625 1000L625 875L750 875L750 750L875 750L875 125L500 125L500 250L375 250L375 125L0 125M250 500L375 500L375 625L500 625L500 500L625 500L625 750L500 750L500 875L375 875L375 750L250 750L250 500Z"  horiz-adv-x="1000" vert-adv-y="1000"  />

      
      <glyph glyph-name="uni58" unicode="&#x58;" d="M0 125L0 375L125 375L125 500L250 500L250 625L125 625L125 750L0 750L0 1000L250 1000L250 750L375 750L375 625L500 625L500 750L625 750L625 1000L875 1000L875 750L750 750L750 625L625 625L625 500L750 500L750 375L875 375L875 125L625 125L625 375L500 375L500 500L375 500L375 375L250 375L250 125L0 125Z"  horiz-adv-x="1000" vert-adv-y="1000"  />

      
      <glyph glyph-name="uni59" unicode="&#x59;" d="M375 125L375 500L250 500L250 625L125 625L125 1000L375 1000L375 625L625 625L625 1000L875 1000L875 625L750 625L750 500L625 500L625 125L375 125Z"  horiz-adv-x="1000" vert-adv-y="1000"  />

      
      <glyph glyph-name="unidd" unicode="&#xdd;" d="M625 875L500 875L500 1000L625 1000L625 875M500 750L375 750L375 875L500 875L500 750M875 750L875 500L750 500L750 375L625 375L625 125L375 125L375 375L250 375L250 500L125 500L125 750L375 750L375 500L625 500L625 750L875 750Z"  horiz-adv-x="1000" vert-adv-y="1000"  />

      
      <glyph glyph-name="uni0176" unicode="&#x0176;" d="M375 125L375 375L250 375L250 500L125 500L125 750L250 750L250 875L375 875L375 1000L625 1000L625 875L750 875L750 750L875 750L875 500L750 500L750 375L625 375L625 125L375 125M375 500L625 500L625 875L375 875L375 500Z"  horiz-adv-x="1000" vert-adv-y="1000"  />

      
      <glyph glyph-name="uni0178" unicode="&#x0178;" d="M125 875L125 1000L375 1000L375 875L125 875M625 875L625 1000L875 1000L875 875L625 875M375 125L375 375L250 375L250 500L125 500L125 750L375 750L375 500L625 500L625 750L875 750L875 500L750 500L750 375L625 375L625 125L375 125Z"  horiz-adv-x="1000" vert-adv-y="1000"  />

      
      <glyph glyph-name="uni5a" unicode="&#x5a;" d="M0 125L0 375L125 375L125 500L250 500L250 625L375 625L375 750L500 750L500 875L0 875L0 1000L875 1000L875 750L750 750L750 625L625 625L625 500L500 500L500 375L375 375L375 250L875 250L875 125L0 125Z"  horiz-adv-x="1000" vert-adv-y="1000"  />

      
      <glyph glyph-name="uni0179" unicode="&#x0179;" d="M625 875L500 875L500 1000L625 1000L625 875M875 750L875 625L750 625L750 500L625 500L625 375L500 375L500 250L875 250L875 125L0 125L0 250L125 250L125 375L250 375L250 500L375 500L375 625L0 625L0 750L375 750L375 875L500 875L500 750L875 750Z"  horiz-adv-x="1000" vert-adv-y="1000"  />

      
      <glyph glyph-name="uni017D" unicode="&#x017D;" d="M0 125L0 250L125 250L125 375L250 375L250 500L375 500L375 625L0 625L0 750L250 750L250 875L125 875L125 1000L375 1000L375 875L500 875L500 1000L750 1000L750 875L625 875L625 750L875 750L875 625L750 625L750 500L625 500L625 375L500 375L500 250L875 250L875 125L0 125Z"  horiz-adv-x="1000" vert-adv-y="1000"  />

      
      <glyph glyph-name="uni017B" unicode="&#x017B;" d="M375 875L375 1000L625 1000L625 875L375 875M0 125L0 250L125 250L125 375L250 375L250 500L375 500L375 625L0 625L0 750L875 750L875 625L750 625L750 500L625 500L625 375L500 375L500 250L875 250L875 125L0 125Z"  horiz-adv-x="1000" vert-adv-y="1000"  />

      
      <glyph glyph-name="uni61" unicode="&#x61;" d="M125 125L125 250L0 250L0 375L125 375L125 500L625 500L625 625L125 625L125 750L750 750L750 625L875 625L875 125L125 125M250 250L625 250L625 375L250 375L250 250Z"  horiz-adv-x="1000" vert-adv-y="1000"  />

      
      <glyph glyph-name="unie1" unicode="&#xe1;" d="M625 875L500 875L500 1000L625 1000L625 875M875 625L875 125L125 125L125 250L0 250L0 375L125 375L125 500L625 500L625 625L125 625L125 750L375 750L375 875L500 875L500 750L750 750L750 625L875 625M625 375L250 375L250 250L625 250L625 375Z"  horiz-adv-x="1000" vert-adv-y="1000"  />

      
      <glyph glyph-name="uni0103" unicode="&#x0103;" d="M250 1000L250 875L125 875L125 1000L250 1000M750 875L625 875L625 1000L750 1000L750 875M875 625L875 125L125 125L125 250L0 250L0 375L125 375L125 500L625 500L625 625L125 625L125 750L250 750L250 875L625 875L625 750L750 750L750 625L875 625M625 375L250 375L250 250L625 250L625 375Z"  horiz-adv-x="1000" vert-adv-y="1000"  />

      
      <glyph glyph-name="unie2" unicode="&#xe2;" d="M125 125L125 250L0 250L0 375L125 375L125 500L625 500L625 625L125 625L125 875L250 875L250 1000L625 1000L625 875L750 875L750 625L875 625L875 125L125 125M375 750L500 750L500 875L375 875L375 750M250 250L625 250L625 375L250 375L250 250Z"  horiz-adv-x="1000" vert-adv-y="1000"  />

      
      <glyph glyph-name="unie4" unicode="&#xe4;" d="M125 875L125 1000L375 1000L375 875L125 875M500 875L500 1000L750 1000L750 875L500 875M125 125L125 250L0 250L0 375L125 375L125 500L625 500L625 625L125 625L125 750L750 750L750 625L875 625L875 125L125 125M250 250L625 250L625 375L250 375L250 250Z"  horiz-adv-x="1000" vert-adv-y="1000"  />

      
      <glyph glyph-name="unie0" unicode="&#xe0;" d="M375 1000L375 875L250 875L250 1000L375 1000M875 625L875 125L125 125L125 250L0 250L0 375L125 375L125 500L625 500L625 625L125 625L125 750L375 750L375 875L500 875L500 750L750 750L750 625L875 625M625 375L250 375L250 250L625 250L625 375Z"  horiz-adv-x="1000" vert-adv-y="1000"  />

      
      <glyph glyph-name="uni0101" unicode="&#x0101;" d="M125 875L125 1000L750 1000L750 875L125 875M125 125L125 250L0 250L0 375L125 375L125 500L625 500L625 625L125 625L125 750L750 750L750 625L875 625L875 125L125 125M250 250L625 250L625 375L250 375L250 250Z"  horiz-adv-x="1000" vert-adv-y="1000"  />

      
      <glyph glyph-name="uni0105" unicode="&#x0105;" d="M875 875L875 375L500 375L500 250L375 250L375 375L125 375L125 500L0 500L0 625L125 625L125 750L625 750L625 875L125 875L125 1000L750 1000L750 875L875 875M625 625L250 625L250 500L625 500L625 625M250 250L375 250L375 125L250 125L250 250M375 0L375 125L625 125L625 0L375 0Z"  horiz-adv-x="1000" vert-adv-y="1000"  />

      
      <glyph glyph-name="unie5" unicode="&#xe5;" d="M125 125L125 250L0 250L0 375L125 375L125 500L625 500L625 625L125 625L125 750L250 750L250 875L375 875L375 1000L500 1000L500 875L625 875L625 750L750 750L750 625L875 625L875 125L125 125M375 750L500 750L500 875L375 875L375 750M250 250L625 250L625 375L250 375L250 250Z"  horiz-adv-x="1000" vert-adv-y="1000"  />

      
      <glyph glyph-name="unie3" unicode="&#xe3;" d="M125 125L125 250L0 250L0 375L125 375L125 500L625 500L625 625L125 625L125 875L250 875L250 1000L500 1000L500 875L625 875L625 1000L750 1000L750 875L625 875L625 750L750 750L750 625L875 625L875 125L125 125M250 750L375 750L375 875L250 875L250 750M250 250L625 250L625 375L250 375L250 250Z"  horiz-adv-x="1000" vert-adv-y="1000"  />

      
      <glyph glyph-name="unie6" unicode="&#xe6;" d="M125 125L125 250L0 250L0 375L125 375L125 500L375 500L375 625L125 625L125 750L750 750L750 625L875 625L875 375L500 375L500 250L750 250L750 125L125 125M500 500L625 500L625 625L500 625L500 500M250 250L375 250L375 375L250 375L250 250Z"  horiz-adv-x="1000" vert-adv-y="1000"  />

      
      <glyph glyph-name="uni62" unicode="&#x62;" d="M125 125L125 250L0 250L0 1000L250 1000L250 750L750 750L750 625L875 625L875 250L750 250L750 125L125 125M250 250L625 250L625 625L250 625L250 250Z"  horiz-adv-x="1000" vert-adv-y="1000"  />

      
      <glyph glyph-name="uni63" unicode="&#x63;" d="M125 125L125 250L0 250L0 625L125 625L125 750L875 750L875 625L250 625L250 250L875 250L875 125L125 125Z"  horiz-adv-x="1000" vert-adv-y="1000"  />

      
      <glyph glyph-name="uni0107" unicode="&#x0107;" d="M625 875L500 875L500 1000L625 1000L625 875M875 750L875 625L250 625L250 250L875 250L875 125L125 125L125 250L0 250L0 625L125 625L125 750L375 750L375 875L500 875L500 750L875 750Z"  horiz-adv-x="1000" vert-adv-y="1000"  />

      
      <glyph glyph-name="uni010D" unicode="&#x010D;" d="M125 125L125 250L0 250L0 625L125 625L125 750L250 750L250 875L125 875L125 1000L375 1000L375 875L500 875L500 1000L750 1000L750 875L625 875L625 750L875 750L875 625L250 625L250 250L875 250L875 125L125 125Z"  horiz-adv-x="1000" vert-adv-y="1000"  />

      
      <glyph glyph-name="unie7" unicode="&#xe7;" d="M875 750L875 625L250 625L250 375L875 375L875 250L625 250L625 125L500 125L500 250L125 250L125 375L0 375L0 625L125 625L125 750L875 750M250 125L500 125L500 0L250 0L250 125Z"  horiz-adv-x="1000" vert-adv-y="1000"  />

      
      <glyph glyph-name="uni0109" unicode="&#x0109;" d="M125 125L125 250L0 250L0 625L125 625L125 875L250 875L250 1000L625 1000L625 875L750 875L750 750L875 750L875 625L250 625L250 250L875 250L875 125L125 125M375 750L500 750L500 875L375 875L375 750Z"  horiz-adv-x="1000" vert-adv-y="1000"  />

      
      <glyph glyph-name="uni010B" unicode="&#x010B;" d="M375 875L375 1000L625 1000L625 875L375 875M125 125L125 250L0 250L0 625L125 625L125 750L875 750L875 625L250 625L250 250L875 250L875 125L125 125Z"  horiz-adv-x="1000" vert-adv-y="1000"  />

      
      <glyph glyph-name="uni64" unicode="&#x64;" d="M125 125L125 250L0 250L0 625L125 625L125 750L625 750L625 1000L875 1000L875 125L125 125M250 250L625 250L625 625L250 625L250 250Z"  horiz-adv-x="1000" vert-adv-y="1000"  />

      
      <glyph glyph-name="unif0" unicode="&#xf0;" d="M875 500L875 250L750 250L750 125L125 125L125 250L0 250L0 500L125 500L125 625L375 625L375 750L125 750L125 1000L375 1000L375 875L625 875L625 625L750 625L750 500L875 500M750 875L625 875L625 1000L750 1000L750 875M125 750L125 625L0 625L0 750L125 750M625 500L250 500L250 250L625 250L625 500Z"  horiz-adv-x="1000" vert-adv-y="1000"  />

      
      <glyph glyph-name="uni010F" unicode="&#x010F;" d="M125 125L125 250L0 250L0 625L125 625L125 750L375 750L375 1000L625 1000L625 125L125 125M750 625L750 1000L1000 1000L1000 750L875 750L875 625L750 625M250 250L375 250L375 625L250 625L250 250Z"  horiz-adv-x="1000" vert-adv-y="1000"  />

      
      <glyph glyph-name="uni0111" unicode="&#x0111;" d="M125 125L125 250L0 250L0 625L125 625L125 750L375 750L375 875L500 875L500 1000L750 1000L750 875L875 875L875 750L750 750L750 125L125 125M250 250L500 250L500 625L250 625L250 250Z"  horiz-adv-x="1000" vert-adv-y="1000"  />

      
      <glyph glyph-name="uni65" unicode="&#x65;" d="M125 125L125 250L0 250L0 625L125 625L125 750L750 750L750 625L875 625L875 375L250 375L250 250L750 250L750 125L125 125M250 500L625 500L625 625L250 625L250 500Z"  horiz-adv-x="1000" vert-adv-y="1000"  />

      
      <glyph glyph-name="unie9" unicode="&#xe9;" d="M625 875L500 875L500 1000L625 1000L625 875M875 625L875 375L250 375L250 250L750 250L750 125L125 125L125 250L0 250L0 625L125 625L125 750L375 750L375 875L500 875L500 750L750 750L750 625L875 625M625 625L250 625L250 500L625 500L625 625Z"  horiz-adv-x="1000" vert-adv-y="1000"  />

      
      <glyph glyph-name="uni0115" unicode="&#x0115;" d="M250 1000L250 875L125 875L125 1000L250 1000M750 875L625 875L625 1000L750 1000L750 875M875 625L875 375L250 375L250 250L750 250L750 125L125 125L125 250L0 250L0 625L125 625L125 750L250 750L250 875L625 875L625 750L750 750L750 625L875 625M625 625L250 625L250 500L625 500L625 625Z"  horiz-adv-x="1000" vert-adv-y="1000"  />

      
      <glyph glyph-name="uni011B" unicode="&#x011B;" d="M125 125L125 250L0 250L0 625L125 625L125 750L250 750L250 875L125 875L125 1000L375 1000L375 875L500 875L500 1000L750 1000L750 875L625 875L625 750L750 750L750 625L875 625L875 375L250 375L250 250L750 250L750 125L125 125M250 500L625 500L625 625L250 625L250 500Z"  horiz-adv-x="1000" vert-adv-y="1000"  />

      
      <glyph glyph-name="uniea" unicode="&#xea;" d="M125 125L125 250L0 250L0 625L125 625L125 875L250 875L250 1000L625 1000L625 875L750 875L750 625L875 625L875 375L250 375L250 250L750 250L750 125L125 125M375 750L500 750L500 875L375 875L375 750M250 500L625 500L625 625L250 625L250 500Z"  horiz-adv-x="1000" vert-adv-y="1000"  />

      
      <glyph glyph-name="unieb" unicode="&#xeb;" d="M125 875L125 1000L375 1000L375 875L125 875M500 875L500 1000L750 1000L750 875L500 875M125 125L125 250L0 250L0 625L125 625L125 750L750 750L750 625L875 625L875 375L250 375L250 250L750 250L750 125L125 125M250 500L625 500L625 625L250 625L250 500Z"  horiz-adv-x="1000" vert-adv-y="1000"  />

      
      <glyph glyph-name="uni0117" unicode="&#x0117;" d="M375 875L375 1000L625 1000L625 875L375 875M125 125L125 250L0 250L0 625L125 625L125 750L750 750L750 625L875 625L875 375L250 375L250 250L750 250L750 125L125 125M250 500L625 500L625 625L250 625L250 500Z"  horiz-adv-x="1000" vert-adv-y="1000"  />

      
      <glyph glyph-name="unie8" unicode="&#xe8;" d="M375 1000L375 875L250 875L250 1000L375 1000M875 625L875 375L250 375L250 250L750 250L750 125L125 125L125 250L0 250L0 625L125 625L125 750L375 750L375 875L500 875L500 750L750 750L750 625L875 625M625 625L250 625L250 500L625 500L625 625Z"  horiz-adv-x="1000" vert-adv-y="1000"  />

      
      <glyph glyph-name="uni0113" unicode="&#x0113;" d="M125 875L125 1000L750 1000L750 875L125 875M125 125L125 250L0 250L0 625L125 625L125 750L750 750L750 625L875 625L875 375L250 375L250 250L750 250L750 125L125 125M250 500L625 500L625 625L250 625L250 500Z"  horiz-adv-x="1000" vert-adv-y="1000"  />

      
      <glyph glyph-name="uni0119" unicode="&#x0119;" d="M875 875L875 625L250 625L250 500L750 500L750 375L500 375L500 250L375 250L375 375L125 375L125 500L0 500L0 875L125 875L125 1000L750 1000L750 875L875 875M625 875L250 875L250 750L625 750L625 875M250 250L375 250L375 125L250 125L250 250M375 0L375 125L625 125L625 0L375 0Z"  horiz-adv-x="1000" vert-adv-y="1000"  />

      
      <glyph glyph-name="uni66" unicode="&#x66;" d="M375 125L375 625L125 625L125 750L375 750L375 875L500 875L500 1000L875 1000L875 875L625 875L625 750L875 750L875 625L625 625L625 125L375 125Z"  horiz-adv-x="1000" vert-adv-y="1000"  />

      
      <glyph glyph-name="uni67" unicode="&#x67;" d="M125 0L125 125L625 125L625 250L125 250L125 375L0 375L0 625L125 625L125 750L875 750L875 125L750 125L750 0L125 0M250 375L625 375L625 625L250 625L250 375Z"  horiz-adv-x="1000" vert-adv-y="1000"  />

      
      <glyph glyph-name="uni011F" unicode="&#x011F;" d="M250 1000L250 875L125 875L125 1000L250 1000M750 875L625 875L625 1000L750 1000L750 875M875 750L875 125L750 125L750 0L125 0L125 125L625 125L625 250L125 250L125 375L0 375L0 625L125 625L125 750L250 750L250 875L625 875L625 750L875 750M625 625L250 625L250 375L625 375L625 625Z"  horiz-adv-x="1000" vert-adv-y="1000"  />

      
      <glyph glyph-name="uni011D" unicode="&#x011D;" d="M125 0L125 125L625 125L625 250L125 250L125 375L0 375L0 625L125 625L125 875L250 875L250 1000L625 1000L625 875L750 875L750 750L875 750L875 125L750 125L750 0L125 0M375 750L500 750L500 875L375 875L375 750M250 375L625 375L625 625L250 625L250 375Z"  horiz-adv-x="1000" vert-adv-y="1000"  />

      
      <glyph glyph-name="uni0123" unicode="&#x0123;" d="M125 0L125 125L625 125L625 250L125 250L125 375L0 375L0 625L125 625L125 750L250 750L250 875L375 875L375 1000L625 1000L625 875L500 875L500 750L875 750L875 125L750 125L750 0L125 0M250 375L625 375L625 625L250 625L250 375Z"  horiz-adv-x="1000" vert-adv-y="1000"  />

      
      <glyph glyph-name="uni0121" unicode="&#x0121;" d="M375 875L375 1000L625 1000L625 875L375 875M125 0L125 125L625 125L625 250L125 250L125 375L0 375L0 625L125 625L125 750L875 750L875 125L750 125L750 0L125 0M250 375L625 375L625 625L250 625L250 375Z"  horiz-adv-x="1000" vert-adv-y="1000"  />

      
      <glyph glyph-name="uni68" unicode="&#x68;" d="M0 125L0 1000L250 1000L250 750L750 750L750 625L875 625L875 125L625 125L625 625L250 625L250 125L0 125Z"  horiz-adv-x="1000" vert-adv-y="1000"  />

      
      <glyph glyph-name="uni0127" unicode="&#x0127;" d="M125 125L125 750L0 750L0 875L125 875L125 1000L375 1000L375 875L625 875L625 750L375 750L375 625L750 625L750 500L875 500L875 125L625 125L625 500L375 500L375 125L125 125Z"  horiz-adv-x="1000" vert-adv-y="1000"  />

      
      <glyph glyph-name="uni0125" unicode="&#x0125;" d="M0 125L0 875L250 875L250 1000L625 1000L625 875L750 875L750 750L500 750L500 875L375 875L375 750L250 750L250 625L750 625L750 500L875 500L875 125L625 125L625 500L250 500L250 125L0 125Z"  horiz-adv-x="1000" vert-adv-y="1000"  />

      
      <glyph glyph-name="uni69" unicode="&#x69;" d="M375 875L375 1000L625 1000L625 875L375 875M125 125L125 250L375 250L375 625L250 625L250 750L625 750L625 250L875 250L875 125L125 125Z"  horiz-adv-x="1000" vert-adv-y="1000"  />

      
      <glyph glyph-name="uni0131" unicode="&#x0131;" d="M125 125L125 250L375 250L375 625L250 625L250 750L625 750L625 250L875 250L875 125L125 125Z"  horiz-adv-x="1000" vert-adv-y="1000"  />

      
      <glyph glyph-name="unied" unicode="&#xed;" d="M625 875L500 875L500 1000L625 1000L625 875M500 750L375 750L375 875L500 875L500 750M875 250L875 125L125 125L125 250L375 250L375 500L250 500L250 625L625 625L625 250L875 250Z"  horiz-adv-x="1000" vert-adv-y="1000"  />

      
      <glyph glyph-name="uni012D" unicode="&#x012D;" d="M250 875L125 875L125 1000L250 1000L250 875M750 875L625 875L625 1000L750 1000L750 875M250 750L250 875L625 875L625 750L250 750M875 250L875 125L125 125L125 250L375 250L375 500L250 500L250 625L625 625L625 250L875 250Z"  horiz-adv-x="1000" vert-adv-y="1000"  />

      
      <glyph glyph-name="uniee" unicode="&#xee;" d="M125 750L125 875L250 875L250 1000L625 1000L625 875L750 875L750 750L500 750L500 875L375 875L375 750L125 750M125 125L125 250L375 250L375 500L250 500L250 625L625 625L625 250L875 250L875 125L125 125Z"  horiz-adv-x="1000" vert-adv-y="1000"  />

      
      <glyph glyph-name="unief" unicode="&#xef;" d="M125 875L125 1000L375 1000L375 875L125 875M500 875L500 1000L750 1000L750 875L500 875M125 125L125 250L375 250L375 625L250 625L250 750L625 750L625 250L875 250L875 125L125 125Z"  horiz-adv-x="1000" vert-adv-y="1000"  />

      
      <glyph glyph-name="uniec" unicode="&#xec;" d="M375 875L250 875L250 1000L375 1000L375 875M375 750L375 875L500 875L500 750L375 750M875 250L875 125L125 125L125 250L375 250L375 500L250 500L250 625L625 625L625 250L875 250Z"  horiz-adv-x="1000" vert-adv-y="1000"  />

      
      <glyph glyph-name="uni0133" unicode="&#x0133;" d="M125 875L125 1000L375 1000L375 875L125 875M625 875L625 1000L875 1000L875 875L625 875M125 250L125 625L0 625L0 750L375 750L375 250L125 250M250 0L250 125L625 125L625 625L500 625L500 750L875 750L875 125L750 125L750 0L250 0Z"  horiz-adv-x="1000" vert-adv-y="1000"  />

      
      <glyph glyph-name="uni012B" unicode="&#x012B;" d="M125 875L125 1000L750 1000L750 875L125 875M125 125L125 250L375 250L375 625L250 625L250 750L625 750L625 250L875 250L875 125L125 125Z"  horiz-adv-x="1000" vert-adv-y="1000"  />

      
      <glyph glyph-name="uni012F" unicode="&#x012F;" d="M625 875L375 875L375 1000L625 1000L625 875M875 500L875 375L500 375L500 250L375 250L375 375L125 375L125 500L375 500L375 625L250 625L250 750L625 750L625 500L875 500M250 250L375 250L375 125L250 125L250 250M375 0L375 125L625 125L625 0L375 0Z"  horiz-adv-x="1000" vert-adv-y="1000"  />

      
      <glyph glyph-name="uni0129" unicode="&#x0129;" d="M500 1000L500 875L250 875L250 1000L500 1000M875 1000L875 875L750 875L750 1000L875 1000M125 875L250 875L250 750L125 750L125 875M500 875L750 875L750 750L500 750L500 875M625 250L875 250L875 125L125 125L125 250L375 250L375 500L250 500L250 625L625 625L625 250Z"  horiz-adv-x="1000" vert-adv-y="1000"  />

      
      <glyph glyph-name="uni6a" unicode="&#x6a;" d="M500 875L500 1000L750 1000L750 875L500 875M125 0L125 125L500 125L500 625L375 625L375 750L750 750L750 125L625 125L625 0L125 0Z"  horiz-adv-x="1000" vert-adv-y="1000"  />

      
      <glyph glyph-name="uni0135" unicode="&#x0135;" d="M250 750L250 875L375 875L375 1000L750 1000L750 875L875 875L875 750L625 750L625 875L500 875L500 750L250 750M125 0L125 125L500 125L500 500L375 500L375 625L750 625L750 125L625 125L625 0L125 0Z"  horiz-adv-x="1000" vert-adv-y="1000"  />

      
      <glyph glyph-name="uni6b" unicode="&#x6b;" d="M0 125L0 1000L250 1000L250 500L500 500L500 625L625 625L625 750L875 750L875 625L750 625L750 500L625 500L625 375L750 375L750 250L875 250L875 125L625 125L625 250L500 250L500 375L250 375L250 125L0 125Z"  horiz-adv-x="1000" vert-adv-y="1000"  />

      
      <glyph glyph-name="uni0137" unicode="&#x0137;" d="M0 250L0 1000L250 1000L250 625L500 625L500 750L625 750L625 875L875 875L875 750L750 750L750 625L625 625L625 500L750 500L750 375L875 375L875 250L625 250L625 375L500 375L500 500L250 500L250 250L0 250M125 0L125 125L250 125L250 250L500 250L500 125L375 125L375 0L125 0Z"  horiz-adv-x="1000" vert-adv-y="1000"  />

      
      <glyph glyph-name="uni0138" unicode="&#x0138;" d="M0 125L0 750L250 750L250 500L500 500L500 625L625 625L625 750L875 750L875 625L750 625L750 500L625 500L625 375L750 375L750 250L875 250L875 125L625 125L625 250L500 250L500 375L250 375L250 125L0 125Z"  horiz-adv-x="1000" vert-adv-y="1000"  />

      
      <glyph glyph-name="uni6c" unicode="&#x6c;" d="M125 125L125 250L375 250L375 875L250 875L250 1000L625 1000L625 250L875 250L875 125L125 125Z"  horiz-adv-x="1000" vert-adv-y="1000"  />

      
      <glyph glyph-name="uni013A" unicode="&#x013A;" d="M500 875L375 875L375 1000L500 1000L500 875M750 250L750 125L0 125L0 250L250 250L250 625L125 625L125 750L250 750L250 875L375 875L375 750L500 750L500 250L750 250Z"  horiz-adv-x="1000" vert-adv-y="1000"  />

      
      <glyph glyph-name="uni013E" unicode="&#x013E;" d="M0 125L0 250L250 250L250 875L125 875L125 1000L500 1000L500 250L750 250L750 125L0 125M625 625L625 1000L875 1000L875 750L750 750L750 625L625 625Z"  horiz-adv-x="1000" vert-adv-y="1000"  />

      
      <glyph glyph-name="uni013C" unicode="&#x013C;" d="M250 0L250 125L375 125L375 250L125 250L125 375L375 375L375 875L250 875L250 1000L625 1000L625 375L875 375L875 250L625 250L625 125L500 125L500 0L250 0Z"  horiz-adv-x="1000" vert-adv-y="1000"  />

      
      <glyph glyph-name="uni0140" unicode="&#x0140;" d="M0 125L0 250L250 250L250 875L125 875L125 1000L500 1000L500 250L750 250L750 125L0 125M625 500L625 750L875 750L875 500L625 500Z"  horiz-adv-x="1000" vert-adv-y="1000"  />

      
      <glyph glyph-name="uni0142" unicode="&#x0142;" d="M125 125L125 250L375 250L375 500L250 500L250 625L375 625L375 875L250 875L250 1000L625 1000L625 750L750 750L750 625L625 625L625 250L875 250L875 125L125 125Z"  horiz-adv-x="1000" vert-adv-y="1000"  />

      
      <glyph glyph-name="uni6d" unicode="&#x6d;" d="M0 125L0 750L750 750L750 625L875 625L875 125L625 125L625 625L500 625L500 125L250 125L250 625L125 625L125 125L0 125Z"  horiz-adv-x="1000" vert-adv-y="1000"  />

      
      <glyph glyph-name="uni6e" unicode="&#x6e;" d="M0 125L0 750L750 750L750 625L875 625L875 125L625 125L625 625L250 625L250 125L0 125Z"  horiz-adv-x="1000" vert-adv-y="1000"  />

      
      <glyph glyph-name="uni0144" unicode="&#x0144;" d="M625 875L500 875L500 1000L625 1000L625 875M875 625L875 125L625 125L625 625L250 625L250 125L0 125L0 750L375 750L375 875L500 875L500 750L750 750L750 625L875 625Z"  horiz-adv-x="1000" vert-adv-y="1000"  />

      
      <glyph glyph-name="uni0148" unicode="&#x0148;" d="M0 125L0 750L250 750L250 875L125 875L125 1000L375 1000L375 875L500 875L500 1000L750 1000L750 875L625 875L625 750L750 750L750 625L875 625L875 125L625 125L625 625L250 625L250 125L0 125Z"  horiz-adv-x="1000" vert-adv-y="1000"  />

      
      <glyph glyph-name="uni0146" unicode="&#x0146;" d="M875 750L875 250L625 250L625 750L250 750L250 250L0 250L0 875L750 875L750 750L875 750M375 250L625 250L625 125L500 125L500 0L250 0L250 125L375 125L375 250Z"  horiz-adv-x="1000" vert-adv-y="1000"  />

      
      <glyph glyph-name="uni014B" unicode="&#x014B;" d="M250 0L250 125L625 125L625 750L250 750L250 250L0 250L0 875L750 875L750 750L875 750L875 125L750 125L750 0L250 0Z"  horiz-adv-x="1000" vert-adv-y="1000"  />

      
      <glyph glyph-name="unif1" unicode="&#xf1;" d="M0 125L0 750L125 750L125 875L250 875L250 1000L500 1000L500 875L625 875L625 1000L750 1000L750 875L625 875L625 750L750 750L750 625L875 625L875 125L625 125L625 625L250 625L250 125L0 125M250 750L375 750L375 875L250 875L250 750Z"  horiz-adv-x="1000" vert-adv-y="1000"  />

      
      <glyph glyph-name="uni6f" unicode="&#x6f;" d="M125 125L125 250L0 250L0 625L125 625L125 750L750 750L750 625L875 625L875 250L750 250L750 125L125 125M250 250L625 250L625 625L250 625L250 250Z"  horiz-adv-x="1000" vert-adv-y="1000"  />

      
      <glyph glyph-name="unif3" unicode="&#xf3;" d="M625 875L500 875L500 1000L625 1000L625 875M875 625L875 250L750 250L750 125L125 125L125 250L0 250L0 625L125 625L125 750L375 750L375 875L500 875L500 750L750 750L750 625L875 625M625 625L250 625L250 250L625 250L625 625Z"  horiz-adv-x="1000" vert-adv-y="1000"  />

      
      <glyph glyph-name="uni014F" unicode="&#x014F;" d="M250 1000L250 875L125 875L125 1000L250 1000M750 875L625 875L625 1000L750 1000L750 875M875 625L875 250L750 250L750 125L125 125L125 250L0 250L0 625L125 625L125 750L250 750L250 875L625 875L625 750L750 750L750 625L875 625M625 625L250 625L250 250L625 250L625 625Z"  horiz-adv-x="1000" vert-adv-y="1000"  />

      
      <glyph glyph-name="unif4" unicode="&#xf4;" d="M125 125L125 250L0 250L0 625L125 625L125 875L250 875L250 1000L625 1000L625 875L750 875L750 625L875 625L875 250L750 250L750 125L125 125M375 750L500 750L500 875L375 875L375 750M250 250L625 250L625 625L250 625L250 250Z"  horiz-adv-x="1000" vert-adv-y="1000"  />

      
      <glyph glyph-name="unif6" unicode="&#xf6;" d="M125 875L125 1000L375 1000L375 875L125 875M500 875L500 1000L750 1000L750 875L500 875M125 125L125 250L0 250L0 625L125 625L125 750L750 750L750 625L875 625L875 250L750 250L750 125L125 125M250 250L625 250L625 625L250 625L250 250Z"  horiz-adv-x="1000" vert-adv-y="1000"  />

      
      <glyph glyph-name="unif2" unicode="&#xf2;" d="M375 1000L375 875L250 875L250 1000L375 1000M875 625L875 250L750 250L750 125L125 125L125 250L0 250L0 625L125 625L125 750L375 750L375 875L500 875L500 750L750 750L750 625L875 625M625 625L250 625L250 250L625 250L625 625Z"  horiz-adv-x="1000" vert-adv-y="1000"  />

      
      <glyph glyph-name="uni0151" unicode="&#x0151;" d="M375 875L250 875L250 1000L375 1000L375 875M750 875L625 875L625 1000L750 1000L750 875M875 625L875 250L750 250L750 125L125 125L125 250L0 250L0 625L125 625L125 875L250 875L250 750L500 750L500 875L625 875L625 750L750 750L750 625L875 625M625 625L250 625L250 250L625 250L625 625Z"  horiz-adv-x="1000" vert-adv-y="1000"  />

      
      <glyph glyph-name="uni014D" unicode="&#x014D;" d="M125 875L125 1000L750 1000L750 875L125 875M125 125L125 250L0 250L0 625L125 625L125 750L750 750L750 625L875 625L875 250L750 250L750 125L125 125M250 250L625 250L625 625L250 625L250 250Z"  horiz-adv-x="1000" vert-adv-y="1000"  />

      
      <glyph glyph-name="unif8" unicode="&#xf8;" d="M125 125L125 250L0 250L0 625L125 625L125 750L750 750L750 625L875 625L875 250L750 250L750 125L125 125M375 250L625 250L625 500L500 500L500 625L250 625L250 375L375 375L375 250M375 375L375 500L500 500L500 375L375 375Z"  horiz-adv-x="1000" vert-adv-y="1000"  />

      
      <glyph glyph-name="unif5" unicode="&#xf5;" d="M125 125L125 250L0 250L0 625L125 625L125 875L250 875L250 1000L500 1000L500 875L625 875L625 1000L750 1000L750 875L625 875L625 750L750 750L750 625L875 625L875 250L750 250L750 125L125 125M250 750L375 750L375 875L250 875L250 750M250 250L625 250L625 625L250 625L250 250Z"  horiz-adv-x="1000" vert-adv-y="1000"  />

      
      <glyph glyph-name="uni0153" unicode="&#x0153;" d="M125 125L125 250L0 250L0 625L125 625L125 750L750 750L750 625L875 625L875 375L500 375L500 250L750 250L750 125L125 125M250 250L375 250L375 625L250 625L250 250M500 500L625 500L625 625L500 625L500 500Z"  horiz-adv-x="1000" vert-adv-y="1000"  />

      
      <glyph glyph-name="uni70" unicode="&#x70;" d="M0 0L0 750L750 750L750 625L875 625L875 375L750 375L750 250L250 250L250 0L0 0M250 375L625 375L625 625L250 625L250 375Z"  horiz-adv-x="1000" vert-adv-y="1000"  />

      
      <glyph glyph-name="unife" unicode="&#xfe;" d="M0 0L0 1000L250 1000L250 750L750 750L750 625L875 625L875 375L750 375L750 250L250 250L250 0L0 0M250 375L625 375L625 625L250 625L250 375Z"  horiz-adv-x="1000" vert-adv-y="1000"  />

      
      <glyph glyph-name="uni71" unicode="&#x71;" d="M625 0L625 250L125 250L125 375L0 375L0 625L125 625L125 750L875 750L875 0L625 0M250 375L625 375L625 625L250 625L250 375Z"  horiz-adv-x="1000" vert-adv-y="1000"  />

      
      <glyph glyph-name="uni72" unicode="&#x72;" d="M375 625L500 625L500 500L375 500L375 125L125 125L125 750L375 750L375 625M875 750L875 625L500 625L500 750L875 750Z"  horiz-adv-x="1000" vert-adv-y="1000"  />

      
      <glyph glyph-name="uni0155" unicode="&#x0155;" d="M625 875L500 875L500 1000L625 1000L625 875M500 750L375 750L375 875L500 875L500 750M375 625L500 625L500 500L375 500L375 125L125 125L125 750L375 750L375 625M875 750L875 625L500 625L500 750L875 750Z"  horiz-adv-x="1000" vert-adv-y="1000"  />

      
      <glyph glyph-name="uni0159" unicode="&#x0159;" d="M125 125L125 750L375 750L375 875L250 875L250 1000L500 1000L500 875L625 875L625 1000L875 1000L875 875L750 875L750 750L875 750L875 625L500 625L500 500L375 500L375 125L125 125M375 625L500 625L500 750L375 750L375 625Z"  horiz-adv-x="1000" vert-adv-y="1000"  />

      
      <glyph glyph-name="uni0157" unicode="&#x0157;" d="M375 750L500 750L500 625L375 625L375 250L500 250L500 125L375 125L375 0L125 0L125 125L250 125L250 250L125 250L125 875L375 875L375 750M875 875L875 750L500 750L500 875L875 875Z"  horiz-adv-x="1000" vert-adv-y="1000"  />

      
      <glyph glyph-name="uni73" unicode="&#x73;" d="M0 125L0 250L625 250L625 375L125 375L125 500L0 500L0 625L125 625L125 750L750 750L750 625L250 625L250 500L750 500L750 375L875 375L875 250L750 250L750 125L0 125Z"  horiz-adv-x="1000" vert-adv-y="1000"  />

      
      <glyph glyph-name="uni015B" unicode="&#x015B;" d="M625 875L500 875L500 1000L625 1000L625 875M875 375L875 250L750 250L750 125L0 125L0 250L625 250L625 375L125 375L125 500L0 500L0 625L125 625L125 750L375 750L375 875L500 875L500 750L750 750L750 625L250 625L250 500L750 500L750 375L875 375Z"  horiz-adv-x="1000" vert-adv-y="1000"  />

      
      <glyph glyph-name="uni0161" unicode="&#x0161;" d="M0 125L0 250L625 250L625 375L125 375L125 500L0 500L0 625L125 625L125 750L250 750L250 875L125 875L125 1000L375 1000L375 875L500 875L500 1000L750 1000L750 875L625 875L625 750L750 750L750 625L250 625L250 500L750 500L750 375L875 375L875 250L750 250L750 125L0 125Z"  horiz-adv-x="1000" vert-adv-y="1000"  />

      
      <glyph glyph-name="uni015F" unicode="&#x015F;" d="M875 500L875 375L750 375L750 250L625 250L625 125L500 125L500 250L0 250L0 375L625 375L625 500L125 500L125 625L0 625L0 750L125 750L125 875L750 875L750 750L250 750L250 625L750 625L750 500L875 500M250 125L500 125L500 0L250 0L250 125Z"  horiz-adv-x="1000" vert-adv-y="1000"  />

      
      <glyph glyph-name="uni015D" unicode="&#x015D;" d="M0 125L0 250L625 250L625 375L125 375L125 500L0 500L0 625L125 625L125 875L250 875L250 1000L625 1000L625 875L750 875L750 625L250 625L250 500L750 500L750 375L875 375L875 250L750 250L750 125L0 125M375 750L500 750L500 875L375 875L375 750Z"  horiz-adv-x="1000" vert-adv-y="1000"  />

      
      <glyph glyph-name="unidf" unicode="&#xdf;" d="M875 875L875 625L750 625L750 500L875 500L875 250L750 250L750 125L500 125L500 250L625 250L625 500L500 500L500 625L625 625L625 875L375 875L375 375L500 375L500 250L375 250L375 125L125 125L125 875L250 875L250 1000L750 1000L750 875L875 875Z"  horiz-adv-x="1000" vert-adv-y="1000"  />

      
      <glyph glyph-name="uni017F" unicode="&#x017F;" d="M375 125L375 875L500 875L500 1000L875 1000L875 875L625 875L625 125L375 125Z"  horiz-adv-x="1000" vert-adv-y="1000"  />

      
      <glyph glyph-name="uni74" unicode="&#x74;" d="M375 125L375 625L125 625L125 750L375 750L375 1000L625 1000L625 750L875 750L875 625L625 625L625 125L375 125Z"  horiz-adv-x="1000" vert-adv-y="1000"  />

      
      <glyph glyph-name="uni0167" unicode="&#x0167;" d="M375 125L375 250L250 250L250 375L375 375L375 625L125 625L125 750L375 750L375 1000L625 1000L625 750L875 750L875 625L625 625L625 500L750 500L750 375L625 375L625 125L375 125Z"  horiz-adv-x="1000" vert-adv-y="1000"  />

      
      <glyph glyph-name="uni0165" unicode="&#x0165;" d="M375 1000L375 875L250 875L250 1000L375 1000M750 875L625 875L625 1000L750 1000L750 875M875 625L875 500L625 500L625 125L375 125L375 500L125 500L125 625L375 625L375 875L625 875L625 625L875 625Z"  horiz-adv-x="1000" vert-adv-y="1000"  />

      
      <glyph glyph-name="uni021B" unicode="&#x021B;" d="M875 750L875 625L625 625L625 125L500 125L500 250L375 250L375 625L125 625L125 750L375 750L375 1000L625 1000L625 750L875 750M250 125L500 125L500 0L250 0L250 125Z"  horiz-adv-x="1000" vert-adv-y="1000"  />

      
      <glyph glyph-name="uni75" unicode="&#x75;" d="M125 125L125 250L0 250L0 750L250 750L250 250L625 250L625 750L875 750L875 125L125 125Z"  horiz-adv-x="1000" vert-adv-y="1000"  />

      
      <glyph glyph-name="unifa" unicode="&#xfa;" d="M625 875L500 875L500 1000L625 1000L625 875M500 750L375 750L375 875L500 875L500 750M875 750L875 125L125 125L125 250L0 250L0 750L250 750L250 250L625 250L625 750L875 750Z"  horiz-adv-x="1000" vert-adv-y="1000"  />

      
      <glyph glyph-name="uni016D" unicode="&#x016D;" d="M250 1000L250 875L125 875L125 1000L250 1000M750 875L625 875L625 1000L750 1000L750 875M625 750L250 750L250 875L625 875L625 750M875 750L875 125L125 125L125 250L0 250L0 750L250 750L250 250L625 250L625 750L875 750Z"  horiz-adv-x="1000" vert-adv-y="1000"  />

      
      <glyph glyph-name="unifb" unicode="&#xfb;" d="M125 750L125 875L250 875L250 1000L625 1000L625 875L750 875L750 750L500 750L500 875L375 875L375 750L125 750M125 125L125 250L0 250L0 625L250 625L250 250L625 250L625 625L875 625L875 125L125 125Z"  horiz-adv-x="1000" vert-adv-y="1000"  />

      
      <glyph glyph-name="unifc" unicode="&#xfc;" d="M125 875L125 1000L375 1000L375 875L125 875M500 875L500 1000L750 1000L750 875L500 875M125 125L125 250L0 250L0 750L250 750L250 250L625 250L625 750L875 750L875 125L125 125Z"  horiz-adv-x="1000" vert-adv-y="1000"  />

      
      <glyph glyph-name="unif9" unicode="&#xf9;" d="M375 875L250 875L250 1000L375 1000L375 875M375 750L375 875L500 875L500 750L375 750M875 750L875 125L125 125L125 250L0 250L0 750L250 750L250 250L625 250L625 750L875 750Z"  horiz-adv-x="1000" vert-adv-y="1000"  />

      
      <glyph glyph-name="uni0171" unicode="&#x0171;" d="M375 875L250 875L250 1000L375 1000L375 875M750 875L625 875L625 1000L750 1000L750 875M875 750L875 125L125 125L125 250L0 250L0 750L125 750L125 875L250 875L250 250L625 250L625 750L875 750M625 875L625 750L500 750L500 875L625 875Z"  horiz-adv-x="1000" vert-adv-y="1000"  />

      
      <glyph glyph-name="uni016B" unicode="&#x016B;" d="M125 875L125 1000L750 1000L750 875L125 875M125 125L125 250L0 250L0 750L250 750L250 250L625 250L625 750L875 750L875 125L125 125Z"  horiz-adv-x="1000" vert-adv-y="1000"  />

      
      <glyph glyph-name="uni0173" unicode="&#x0173;" d="M875 1000L875 375L500 375L500 250L375 250L375 375L125 375L125 500L0 500L0 1000L250 1000L250 500L625 500L625 1000L875 1000M250 250L375 250L375 125L250 125L250 250M375 0L375 125L625 125L625 0L375 0Z"  horiz-adv-x="1000" vert-adv-y="1000"  />

      
      <glyph glyph-name="uni016F" unicode="&#x016F;" d="M125 125L125 250L0 250L0 750L125 750L125 875L250 875L250 1000L625 1000L625 875L750 875L750 750L875 750L875 125L125 125M375 750L500 750L500 875L375 875L375 750M250 250L625 250L625 625L750 625L750 750L625 750L625 625L250 625L250 750L125 750L125 625L250 625L250 250Z"  horiz-adv-x="1000" vert-adv-y="1000"  />

      
      <glyph glyph-name="uni0169" unicode="&#x0169;" d="M375 875L250 875L250 1000L500 1000L500 875L625 875L625 750L375 750L375 875M750 875L625 875L625 1000L750 1000L750 875M875 750L875 125L125 125L125 250L0 250L0 750L125 750L125 875L250 875L250 250L625 250L625 750L875 750Z"  horiz-adv-x="1000" vert-adv-y="1000"  />

      
      <glyph glyph-name="uni76" unicode="&#x76;" d="M375 125L375 250L250 250L250 375L125 375L125 750L375 750L375 375L625 375L625 750L875 750L875 375L750 375L750 250L625 250L625 125L375 125Z"  horiz-adv-x="1000" vert-adv-y="1000"  />

      
      <glyph glyph-name="uni77" unicode="&#x77;" d="M250 250L375 250L375 125L125 125L125 250L0 250L0 750L250 750L250 250M500 750L500 250L375 250L375 750L500 750M875 750L875 250L750 250L750 125L500 125L500 250L625 250L625 750L875 750Z"  horiz-adv-x="1000" vert-adv-y="1000"  />

      
      <glyph glyph-name="uni0175" unicode="&#x0175;" d="M375 750L125 750L125 875L250 875L250 1000L625 1000L625 875L750 875L750 750L500 750L500 875L375 875L375 750M250 250L375 250L375 125L125 125L125 250L0 250L0 625L250 625L250 250M500 625L500 250L375 250L375 625L500 625M875 625L875 250L750 250L750 125L500 125L500 250L625 250L625 625L875 625Z"  horiz-adv-x="1000" vert-adv-y="1000"  />

      
      <glyph glyph-name="uni78" unicode="&#x78;" d="M0 125L0 250L125 250L125 375L250 375L250 500L125 500L125 625L0 625L0 750L250 750L250 625L375 625L375 500L500 500L500 625L625 625L625 750L875 750L875 625L750 625L750 500L625 500L625 375L750 375L750 250L875 250L875 125L625 125L625 250L500 250L500 375L375 375L375 250L250 250L250 125L0 125Z"  horiz-adv-x="1000" vert-adv-y="1000"  />

      
      <glyph glyph-name="uni79" unicode="&#x79;" d="M125 0L125 125L625 125L625 250L125 250L125 375L0 375L0 750L250 750L250 375L625 375L625 750L875 750L875 125L750 125L750 0L125 0Z"  horiz-adv-x="1000" vert-adv-y="1000"  />

      
      <glyph glyph-name="unifd" unicode="&#xfd;" d="M625 875L500 875L500 1000L625 1000L625 875M500 750L375 750L375 875L500 875L500 750M875 750L875 125L750 125L750 0L125 0L125 125L625 125L625 250L125 250L125 375L0 375L0 750L250 750L250 375L625 375L625 750L875 750Z"  horiz-adv-x="1000" vert-adv-y="1000"  />

      
      <glyph glyph-name="uni0177" unicode="&#x0177;" d="M125 750L125 875L250 875L250 1000L625 1000L625 875L750 875L750 750L500 750L500 875L375 875L375 750L125 750M125 0L125 125L625 125L625 250L125 250L125 375L0 375L0 625L250 625L250 375L625 375L625 625L875 625L875 125L750 125L750 0L125 0Z"  horiz-adv-x="1000" vert-adv-y="1000"  />

      
      <glyph glyph-name="uniff" unicode="&#xff;" d="M125 875L125 1000L375 1000L375 875L125 875M500 875L500 1000L750 1000L750 875L500 875M125 0L125 125L625 125L625 250L125 250L125 375L0 375L0 750L250 750L250 375L625 375L625 750L875 750L875 125L750 125L750 0L125 0Z"  horiz-adv-x="1000" vert-adv-y="1000"  />

      
      <glyph glyph-name="uni7a" unicode="&#x7a;" d="M0 125L0 250L125 250L125 375L250 375L250 500L375 500L375 625L0 625L0 750L875 750L875 625L750 625L750 500L625 500L625 375L500 375L500 250L875 250L875 125L0 125Z"  horiz-adv-x="1000" vert-adv-y="1000"  />

      
      <glyph glyph-name="uni017A" unicode="&#x017A;" d="M625 875L500 875L500 1000L625 1000L625 875M875 750L875 625L750 625L750 500L625 500L625 375L500 375L500 250L875 250L875 125L0 125L0 250L125 250L125 375L250 375L250 500L375 500L375 625L0 625L0 750L375 750L375 875L500 875L500 750L875 750Z"  horiz-adv-x="1000" vert-adv-y="1000"  />

      
      <glyph glyph-name="uni017E" unicode="&#x017E;" d="M0 125L0 250L125 250L125 375L250 375L250 500L375 500L375 625L0 625L0 750L250 750L250 875L125 875L125 1000L375 1000L375 875L500 875L500 1000L750 1000L750 875L625 875L625 750L875 750L875 625L750 625L750 500L625 500L625 375L500 375L500 250L875 250L875 125L0 125Z"  horiz-adv-x="1000" vert-adv-y="1000"  />

      
      <glyph glyph-name="uni017C" unicode="&#x017C;" d="M375 875L375 1000L625 1000L625 875L375 875M0 125L0 250L125 250L125 375L250 375L250 500L375 500L375 625L0 625L0 750L875 750L875 625L750 625L750 500L625 500L625 375L500 375L500 250L875 250L875 125L0 125Z"  horiz-adv-x="1000" vert-adv-y="1000"  />

      
      <glyph glyph-name="uniFB01" unicode="&#xFB01;" d="M125 125L125 625L0 625L0 750L125 750L125 875L250 875L250 1000L625 1000L625 875L375 875L375 750L875 750L875 125L625 125L625 625L375 625L375 125L125 125Z"  horiz-adv-x="1000" vert-adv-y="1000"  />

      
      <glyph glyph-name="uniFB02" unicode="&#xFB02;" d="M125 125L125 625L0 625L0 750L125 750L125 875L250 875L250 1000L875 1000L875 125L625 125L625 625L375 625L375 125L125 125M375 750L625 750L625 875L375 875L375 750Z"  horiz-adv-x="1000" vert-adv-y="1000"  />

      
      <glyph glyph-name="uniaa" unicode="&#xaa;" d="M250 500L250 625L125 625L125 750L250 750L250 875L125 875L125 1000L625 1000L625 875L750 875L750 500L250 500M375 625L500 625L500 750L375 750L375 625Z"  horiz-adv-x="1000" vert-adv-y="1000"  />

      
      <glyph glyph-name="uniba" unicode="&#xba;" d="M250 500L250 625L125 625L125 875L250 875L250 1000L625 1000L625 875L750 875L750 625L625 625L625 500L250 500M375 625L500 625L500 875L375 875L375 625Z"  horiz-adv-x="1000" vert-adv-y="1000"  />

      
      <glyph glyph-name="uni0410" unicode="&#x0410;" d="M0 125L0 750L125 750L125 875L250 875L250 1000L625 1000L625 875L750 875L750 750L875 750L875 125L625 125L625 375L250 375L250 125L0 125M250 500L625 500L625 750L500 750L500 875L375 875L375 750L250 750L250 500Z"  horiz-adv-x="1000" vert-adv-y="1000"  />

      
      <glyph glyph-name="uni0411" unicode="&#x0411;" d="M0 125L0 1000L750 1000L750 875L250 875L250 625L750 625L750 500L875 500L875 250L750 250L750 125L0 125M250 250L625 250L625 500L250 500L250 250Z"  horiz-adv-x="1000" vert-adv-y="1000"  />

      
      <glyph glyph-name="uni0412" unicode="&#x0412;" d="M0 125L0 1000L750 1000L750 875L875 875L875 625L750 625L750 500L875 500L875 250L750 250L750 125L0 125M250 625L625 625L625 875L250 875L250 625M250 250L625 250L625 500L250 500L250 250Z"  horiz-adv-x="1000" vert-adv-y="1000"  />

      
      <glyph glyph-name="uni0413" unicode="&#x0413;" d="M125 125L125 1000L875 1000L875 750L750 750L750 875L375 875L375 125L125 125Z"  horiz-adv-x="1000" vert-adv-y="1000"  />

      
      <glyph glyph-name="uni0403" unicode="&#x0403;" d="M625 875L500 875L500 1000L625 1000L625 875M875 750L875 500L750 500L750 625L375 625L375 125L125 125L125 750L375 750L375 875L500 875L500 750L875 750Z"  horiz-adv-x="1000" vert-adv-y="1000"  />

      
      <glyph glyph-name="uni0490" unicode="&#x0490;" d="M625 1000L875 1000L875 750L375 750L375 125L125 125L125 875L625 875L625 1000Z"  horiz-adv-x="1000" vert-adv-y="1000"  />

      
      <glyph glyph-name="uni0414" unicode="&#x0414;" d="M0 0L0 250L125 250L125 500L250 500L250 1000L875 1000L875 250L1000 250L1000 0L750 0L750 125L250 125L250 0L0 0M375 250L625 250L625 875L375 875L375 250Z"  horiz-adv-x="1000" vert-adv-y="1000"  />

      
      <glyph glyph-name="uni0415" unicode="&#x0415;" d="M0 125L0 1000L875 1000L875 875L250 875L250 625L750 625L750 500L250 500L250 250L875 250L875 125L0 125Z"  horiz-adv-x="1000" vert-adv-y="1000"  />

      
      <glyph glyph-name="uni0400" unicode="&#x0400;" d="M375 1000L375 875L250 875L250 1000L375 1000M875 750L875 625L250 625L250 500L750 500L750 375L250 375L250 250L875 250L875 125L0 125L0 750L375 750L375 875L500 875L500 750L875 750Z"  horiz-adv-x="1000" vert-adv-y="1000"  />

      
      <glyph glyph-name="uni0401" unicode="&#x0401;" d="M125 875L125 1000L375 1000L375 875L125 875M500 875L500 1000L750 1000L750 875L500 875M0 125L0 750L875 750L875 625L250 625L250 500L750 500L750 375L250 375L250 250L875 250L875 125L0 125Z"  horiz-adv-x="1000" vert-adv-y="1000"  />

      
      <glyph glyph-name="uni0416" unicode="&#x0416;" d="M250 1000L250 625L125 625L125 750L0 750L0 1000L250 1000M500 625L625 625L625 500L500 500L500 125L375 125L375 500L250 500L250 625L375 625L375 1000L500 1000L500 625M875 1000L875 750L750 750L750 625L625 625L625 1000L875 1000M125 500L250 500L250 125L0 125L0 375L125 375L125 500M625 125L625 500L750 500L750 375L875 375L875 125L625 125Z"  horiz-adv-x="1000" vert-adv-y="1000"  />

      
      <glyph glyph-name="uni0417" unicode="&#x0417;" d="M125 125L125 250L0 250L0 375L250 375L250 250L625 250L625 500L250 500L250 625L625 625L625 875L250 875L250 750L0 750L0 875L125 875L125 1000L750 1000L750 875L875 875L875 625L750 625L750 500L875 500L875 250L750 250L750 125L125 125Z"  horiz-adv-x="1000" vert-adv-y="1000"  />

      
      <glyph glyph-name="uni0418" unicode="&#x0418;" d="M0 125L0 1000L250 1000L250 500L375 500L375 625L500 625L500 750L625 750L625 1000L875 1000L875 125L625 125L625 500L500 500L500 375L375 375L375 250L250 250L250 125L0 125Z"  horiz-adv-x="1000" vert-adv-y="1000"  />

      
      <glyph glyph-name="uni0419" unicode="&#x0419;" d="M125 875L125 1000L750 1000L750 875L125 875M0 125L0 750L250 750L250 375L375 375L375 500L500 500L500 625L625 625L625 750L875 750L875 125L625 125L625 375L500 375L500 250L375 250L375 125L0 125Z"  horiz-adv-x="1000" vert-adv-y="1000"  />

      
      <glyph glyph-name="uni040D" unicode="&#x040D;" d="M375 875L250 875L250 1000L375 1000L375 875M375 750L375 875L500 875L500 750L375 750M875 750L875 125L625 125L625 375L500 375L500 250L375 250L375 125L0 125L0 750L250 750L250 375L375 375L375 500L500 500L500 625L625 625L625 750L875 750Z"  horiz-adv-x="1000" vert-adv-y="1000"  />

      
      <glyph glyph-name="uni041A" unicode="&#x041A;" d="M375 750L500 750L500 625L625 625L625 500L750 500L750 250L875 250L875 125L625 125L625 250L500 250L500 500L250 500L250 125L0 125L0 1000L250 1000L250 625L375 625L375 750M875 1000L875 875L750 875L750 750L500 750L500 875L625 875L625 1000L875 1000Z"  horiz-adv-x="1000" vert-adv-y="1000"  />

      
      <glyph glyph-name="uni040C" unicode="&#x040C;" d="M625 875L500 875L500 1000L625 1000L625 875M500 750L375 750L375 875L500 875L500 750M500 625L625 625L625 500L750 500L750 375L875 375L875 125L625 125L625 375L250 375L250 125L0 125L0 750L250 750L250 500L500 500L500 625M875 750L875 625L625 625L625 750L875 750Z"  horiz-adv-x="1000" vert-adv-y="1000"  />

      
      <glyph glyph-name="uni041B" unicode="&#x041B;" d="M0 125L0 375L125 375L125 500L250 500L250 1000L875 1000L875 125L625 125L625 875L375 875L375 250L250 250L250 125L0 125Z"  horiz-adv-x="1000" vert-adv-y="1000"  />

      
      <glyph glyph-name="uni041C" unicode="&#x041C;" d="M0 125L0 1000L250 1000L250 875L375 875L375 750L500 750L500 875L625 875L625 1000L875 1000L875 125L625 125L625 625L500 625L500 375L375 375L375 625L250 625L250 125L0 125Z"  horiz-adv-x="1000" vert-adv-y="1000"  />

      
      <glyph glyph-name="uni041D" unicode="&#x041D;" d="M0 125L0 1000L250 1000L250 625L625 625L625 1000L875 1000L875 125L625 125L625 500L250 500L250 125L0 125Z"  horiz-adv-x="1000" vert-adv-y="1000"  />

      
      <glyph glyph-name="uni041E" unicode="&#x041E;" d="M125 125L125 250L0 250L0 875L125 875L125 1000L750 1000L750 875L875 875L875 250L750 250L750 125L125 125M250 250L625 250L625 875L250 875L250 250Z"  horiz-adv-x="1000" vert-adv-y="1000"  />

      
      <glyph glyph-name="uni041F" unicode="&#x041F;" d="M0 125L0 1000L875 1000L875 125L625 125L625 875L250 875L250 125L0 125Z"  horiz-adv-x="1000" vert-adv-y="1000"  />

      
      <glyph glyph-name="uni0420" unicode="&#x0420;" d="M0 125L0 1000L750 1000L750 875L875 875L875 500L750 500L750 375L250 375L250 125L0 125M250 500L625 500L625 875L250 875L250 500Z"  horiz-adv-x="1000" vert-adv-y="1000"  />

      
      <glyph glyph-name="uni0421" unicode="&#x0421;" d="M250 125L250 250L125 250L125 375L0 375L0 750L125 750L125 875L250 875L250 1000L750 1000L750 875L875 875L875 750L625 750L625 875L375 875L375 750L250 750L250 375L375 375L375 250L625 250L625 375L875 375L875 250L750 250L750 125L250 125Z"  horiz-adv-x="1000" vert-adv-y="1000"  />

      
      <glyph glyph-name="uni0422" unicode="&#x0422;" d="M375 125L375 875L125 875L125 1000L875 1000L875 875L625 875L625 125L375 125Z"  horiz-adv-x="1000" vert-adv-y="1000"  />

      
      <glyph glyph-name="uni0423" unicode="&#x0423;" d="M125 125L125 250L0 250L0 375L250 375L250 250L625 250L625 500L125 500L125 625L0 625L0 1000L250 1000L250 625L625 625L625 1000L875 1000L875 250L750 250L750 125L125 125Z"  horiz-adv-x="1000" vert-adv-y="1000"  />

      
      <glyph glyph-name="uni040E" unicode="&#x040E;" d="M125 875L125 1000L750 1000L750 875L125 875M125 0L125 125L625 125L625 250L125 250L125 375L0 375L0 750L250 750L250 375L625 375L625 750L875 750L875 125L750 125L750 0L125 0Z"  horiz-adv-x="1000" vert-adv-y="1000"  />

      
      <glyph glyph-name="uni0424" unicode="&#x0424;" d="M375 125L375 250L125 250L125 375L0 375L0 750L125 750L125 875L375 875L375 1000L500 1000L500 875L750 875L750 750L875 750L875 375L750 375L750 250L500 250L500 125L375 125M250 375L375 375L375 750L250 750L250 375M500 375L625 375L625 750L500 750L500 375Z"  horiz-adv-x="1000" vert-adv-y="1000"  />

      
      <glyph glyph-name="uni0425" unicode="&#x0425;" d="M0 125L0 375L125 375L125 500L250 500L250 625L125 625L125 750L0 750L0 1000L250 1000L250 750L375 750L375 625L500 625L500 750L625 750L625 1000L875 1000L875 750L750 750L750 625L625 625L625 500L750 500L750 375L875 375L875 125L625 125L625 375L500 375L500 500L375 500L375 375L250 375L250 125L0 125Z"  horiz-adv-x="1000" vert-adv-y="1000"  />

      
      <glyph glyph-name="uni0427" unicode="&#x0427;" d="M625 125L625 500L125 500L125 625L0 625L0 1000L250 1000L250 625L625 625L625 1000L875 1000L875 125L625 125Z"  horiz-adv-x="1000" vert-adv-y="1000"  />

      
      <glyph glyph-name="uni0426" unicode="&#x0426;" d="M625 0L625 125L0 125L0 1000L250 1000L250 250L500 250L500 1000L750 1000L750 250L875 250L875 0L625 0Z"  horiz-adv-x="1000" vert-adv-y="1000"  />

      
      <glyph glyph-name="uni0428" unicode="&#x0428;" d="M0 125L0 1000L250 1000L250 250L375 250L375 1000L500 1000L500 250L625 250L625 1000L875 1000L875 125L0 125Z"  horiz-adv-x="1000" vert-adv-y="1000"  />

      
      <glyph glyph-name="uni0429" unicode="&#x0429;" d="M750 0L750 125L0 125L0 1000L250 1000L250 250L375 250L375 1000L500 1000L500 250L625 250L625 1000L875 1000L875 250L1000 250L1000 0L750 0Z"  horiz-adv-x="1000" vert-adv-y="1000"  />

      
      <glyph glyph-name="uni040F" unicode="&#x040F;" d="M375 0L375 125L0 125L0 1000L250 1000L250 250L625 250L625 1000L875 1000L875 125L500 125L500 0L375 0Z"  horiz-adv-x="1000" vert-adv-y="1000"  />

      
      <glyph glyph-name="uni042C" unicode="&#x042C;" d="M0 125L0 1000L250 1000L250 750L750 750L750 625L875 625L875 250L750 250L750 125L0 125M250 250L625 250L625 625L250 625L250 250Z"  horiz-adv-x="1000" vert-adv-y="1000"  />

      
      <glyph glyph-name="uni042A" unicode="&#x042A;" d="M125 125L125 875L0 875L0 1000L375 1000L375 750L750 750L750 625L875 625L875 250L750 250L750 125L125 125M375 250L625 250L625 625L375 625L375 250Z"  horiz-adv-x="1000" vert-adv-y="1000"  />

      
      <glyph glyph-name="uni042B" unicode="&#x042B;" d="M0 125L0 1000L250 1000L250 750L500 750L500 125L0 125M625 125L625 1000L875 1000L875 125L625 125M250 250L375 250L375 625L250 625L250 250Z"  horiz-adv-x="1000" vert-adv-y="1000"  />

      
      <glyph glyph-name="uni0409" unicode="&#x0409;" d="M0 125L0 375L125 375L125 1000L625 1000L625 750L875 750L875 125L375 125L375 875L250 875L250 125L0 125M625 250L750 250L750 625L625 625L625 250Z"  horiz-adv-x="1000" vert-adv-y="1000"  />

      
      <glyph glyph-name="uni040A" unicode="&#x040A;" d="M0 125L0 1000L250 1000L250 625L375 625L375 1000L625 1000L625 750L875 750L875 125L375 125L375 500L250 500L250 125L0 125M625 250L750 250L750 625L625 625L625 250Z"  horiz-adv-x="1000" vert-adv-y="1000"  />

      
      <glyph glyph-name="uni0405" unicode="&#x0405;" d="M125 125L125 250L0 250L0 375L250 375L250 250L625 250L625 500L125 500L125 625L0 625L0 875L125 875L125 1000L750 1000L750 875L875 875L875 750L625 750L625 875L250 875L250 625L750 625L750 500L875 500L875 250L750 250L750 125L125 125Z"  horiz-adv-x="1000" vert-adv-y="1000"  />

      
      <glyph glyph-name="uni0404" unicode="&#x0404;" d="M250 125L250 250L125 250L125 375L0 375L0 750L125 750L125 875L250 875L250 1000L750 1000L750 875L875 875L875 750L625 750L625 875L375 875L375 750L250 750L250 625L750 625L750 500L250 500L250 375L375 375L375 250L625 250L625 375L875 375L875 250L750 250L750 125L250 125Z"  horiz-adv-x="1000" vert-adv-y="1000"  />

      
      <glyph glyph-name="uni042D" unicode="&#x042D;" d="M125 125L125 250L0 250L0 375L250 375L250 250L500 250L500 375L625 375L625 500L125 500L125 625L625 625L625 750L500 750L500 875L250 875L250 750L0 750L0 875L125 875L125 1000L625 1000L625 875L750 875L750 750L875 750L875 375L750 375L750 250L625 250L625 125L125 125Z"  horiz-adv-x="1000" vert-adv-y="1000"  />

      
      <glyph glyph-name="uni0406" unicode="&#x0406;" d="M125 125L125 250L375 250L375 875L125 875L125 1000L875 1000L875 875L625 875L625 250L875 250L875 125L125 125Z"  horiz-adv-x="1000" vert-adv-y="1000"  />

      
      <glyph glyph-name="uni0407" unicode="&#x0407;" d="M125 875L125 1000L375 1000L375 875L125 875M625 875L625 1000L875 1000L875 875L625 875M125 125L125 250L375 250L375 625L125 625L125 750L875 750L875 625L625 625L625 250L875 250L875 125L125 125Z"  horiz-adv-x="1000" vert-adv-y="1000"  />

      
      <glyph glyph-name="uni0408" unicode="&#x0408;" d="M125 125L125 250L0 250L0 375L250 375L250 250L625 250L625 1000L875 1000L875 250L750 250L750 125L125 125Z"  horiz-adv-x="1000" vert-adv-y="1000"  />

      
      <glyph glyph-name="uni040B" unicode="&#x040B;" d="M125 125L125 875L0 875L0 1000L625 1000L625 875L375 875L375 750L750 750L750 625L875 625L875 125L625 125L625 625L375 625L375 125L125 125Z"  horiz-adv-x="1000" vert-adv-y="1000"  />

      
      <glyph glyph-name="uni042E" unicode="&#x042E;" d="M0 125L0 1000L125 1000L125 625L250 625L250 875L375 875L375 1000L750 1000L750 875L875 875L875 250L750 250L750 125L375 125L375 250L250 250L250 500L125 500L125 125L0 125M500 250L625 250L625 875L500 875L500 250Z"  horiz-adv-x="1000" vert-adv-y="1000"  />

      
      <glyph glyph-name="uni042F" unicode="&#x042F;" d="M0 125L0 250L125 250L125 375L250 375L250 500L0 500L0 875L125 875L125 1000L875 1000L875 125L625 125L625 375L375 375L375 125L0 125M375 500L625 500L625 875L250 875L250 625L375 625L375 500Z"  horiz-adv-x="1000" vert-adv-y="1000"  />

      
      <glyph glyph-name="uni0402" unicode="&#x0402;" d="M500 0L500 125L625 125L625 625L375 625L375 125L125 125L125 875L0 875L0 1000L625 1000L625 875L375 875L375 750L750 750L750 625L875 625L875 125L750 125L750 0L500 0Z"  horiz-adv-x="1000" vert-adv-y="1000"  />

      
      <glyph glyph-name="uni0462" unicode="&#x0462;" d="M875 500L875 250L750 250L750 125L125 125L125 750L0 750L0 875L125 875L125 1000L375 1000L375 875L625 875L625 750L375 750L375 625L750 625L750 500L875 500M625 500L375 500L375 250L625 250L625 500Z"  horiz-adv-x="1000" vert-adv-y="1000"  />

      
      <glyph glyph-name="uni046A" unicode="&#x046A;" d="M875 1000L875 750L750 750L750 875L125 875L125 750L0 750L0 1000L875 1000M125 750L250 750L250 625L125 625L125 750M625 625L625 750L750 750L750 625L625 625M250 625L625 625L625 500L500 500L500 125L375 125L375 500L250 500L250 625M125 500L250 500L250 125L0 125L0 375L125 375L125 500M625 125L625 500L750 500L750 375L875 375L875 125L625 125Z"  horiz-adv-x="1000" vert-adv-y="1000"  />

      
      <glyph glyph-name="uni0472" unicode="&#x0472;" d="M125 125L125 250L0 250L0 875L125 875L125 1000L750 1000L750 875L875 875L875 250L750 250L750 125L125 125M250 250L625 250L625 875L250 875L250 250M125 500L750 500L750 625L125 625L125 500Z"  horiz-adv-x="1000" vert-adv-y="1000"  />

      
      <glyph glyph-name="uni0474" unicode="&#x0474;" d="M375 125L375 250L250 250L250 375L125 375L125 500L0 500L0 1000L250 1000L250 500L375 500L375 375L500 375L500 500L625 500L625 1000L875 1000L875 750L750 750L750 375L625 375L625 250L500 250L500 125L375 125Z"  horiz-adv-x="1000" vert-adv-y="1000"  />

      
      <glyph glyph-name="uni0492" unicode="&#x0492;" d="M875 1000L875 750L750 750L750 875L375 875L375 625L625 625L625 500L375 500L375 125L125 125L125 500L0 500L0 625L125 625L125 1000L875 1000Z"  horiz-adv-x="1000" vert-adv-y="1000"  />

      
      <glyph glyph-name="uni0494" unicode="&#x0494;" d="M875 1000L875 750L750 750L750 875L375 875L375 625L750 625L750 500L875 500L875 125L750 125L750 0L500 0L500 125L625 125L625 500L375 500L375 125L125 125L125 1000L875 1000Z"  horiz-adv-x="1000" vert-adv-y="1000"  />

      
      <glyph glyph-name="uni0496" unicode="&#x0496;" d="M250 1000L250 625L125 625L125 750L0 750L0 1000L250 1000M625 625L625 500L500 500L500 125L375 125L375 500L250 500L250 625L375 625L375 1000L500 1000L500 625L625 625M750 625L625 625L625 1000L875 1000L875 750L750 750L750 625M125 500L250 500L250 125L0 125L0 375L125 375L125 500M875 250L1000 250L1000 0L750 0L750 125L625 125L625 500L750 500L750 375L875 375L875 250Z"  horiz-adv-x="1000" vert-adv-y="1000"  />

      
      <glyph glyph-name="uni0498" unicode="&#x0498;" d="M875 875L875 625L750 625L750 500L875 500L875 250L750 250L750 125L500 125L500 0L375 0L375 125L125 125L125 250L0 250L0 375L250 375L250 250L625 250L625 500L250 500L250 625L625 625L625 875L250 875L250 750L0 750L0 875L125 875L125 1000L750 1000L750 875L875 875Z"  horiz-adv-x="1000" vert-adv-y="1000"  />

      
      <glyph glyph-name="uni049A" unicode="&#x049A;" d="M375 750L500 750L500 625L625 625L625 500L750 500L750 250L875 250L875 0L625 0L625 250L500 250L500 500L250 500L250 125L0 125L0 1000L250 1000L250 625L375 625L375 750M875 1000L875 875L750 875L750 750L500 750L500 875L625 875L625 1000L875 1000Z"  horiz-adv-x="1000" vert-adv-y="1000"  />

      
      <glyph glyph-name="uni049C" unicode="&#x049C;" d="M500 625L625 625L625 500L500 500L500 375L375 375L375 500L250 500L250 125L0 125L0 1000L250 1000L250 625L375 625L375 750L500 750L500 625M750 875L750 625L625 625L625 1000L875 1000L875 875L750 875M875 125L625 125L625 500L750 500L750 375L875 375L875 125Z"  horiz-adv-x="1000" vert-adv-y="1000"  />

      
      <glyph glyph-name="uni04A0" unicode="&#x04A0;" d="M625 750L625 500L750 500L750 250L875 250L875 125L625 125L625 250L500 250L500 500L375 500L375 125L125 125L125 875L0 875L0 1000L375 1000L375 625L500 625L500 750L625 750M750 875L750 750L625 750L625 1000L875 1000L875 875L750 875Z"  horiz-adv-x="1000" vert-adv-y="1000"  />

      
      <glyph glyph-name="uni04A2" unicode="&#x04A2;" d="M875 250L1000 250L1000 0L750 0L750 125L625 125L625 500L250 500L250 125L0 125L0 1000L250 1000L250 625L625 625L625 1000L875 1000L875 250Z"  horiz-adv-x="1000" vert-adv-y="1000"  />

      
      <glyph glyph-name="uni0524" unicode="&#x0524;" d="M875 250L1000 250L1000 0L750 0L750 125L625 125L625 875L250 875L250 125L0 125L0 1000L875 1000L875 250Z"  horiz-adv-x="1000" vert-adv-y="1000"  />

      
      <glyph glyph-name="uni04AA" unicode="&#x04AA;" d="M875 875L875 750L625 750L625 875L375 875L375 750L250 750L250 375L375 375L375 250L625 250L625 375L875 375L875 250L750 250L750 125L625 125L625 0L375 0L375 125L250 125L250 250L125 250L125 375L0 375L0 750L125 750L125 875L250 875L250 1000L750 1000L750 875L875 875Z"  horiz-adv-x="1000" vert-adv-y="1000"  />

      
      <glyph glyph-name="uni04AC" unicode="&#x04AC;" d="M875 1000L875 875L625 875L625 250L750 250L750 0L500 0L500 125L375 125L375 875L125 875L125 1000L875 1000Z"  horiz-adv-x="1000" vert-adv-y="1000"  />

      
      <glyph glyph-name="uni04AE" unicode="&#x04AE;" d="M375 125L375 500L250 500L250 625L125 625L125 1000L375 1000L375 625L625 625L625 1000L875 1000L875 625L750 625L750 500L625 500L625 125L375 125Z"  horiz-adv-x="1000" vert-adv-y="1000"  />

      
      <glyph glyph-name="uni04B0" unicode="&#x04B0;" d="M875 1000L875 625L750 625L750 500L625 500L625 375L750 375L750 250L625 250L625 125L375 125L375 250L250 250L250 375L375 375L375 500L250 500L250 625L125 625L125 1000L375 1000L375 625L625 625L625 1000L875 1000Z"  horiz-adv-x="1000" vert-adv-y="1000"  />

      
      <glyph glyph-name="uni04B6" unicode="&#x04B6;" d="M875 250L1000 250L1000 0L750 0L750 125L625 125L625 500L125 500L125 625L0 625L0 1000L250 1000L250 625L625 625L625 1000L875 1000L875 250Z"  horiz-adv-x="1000" vert-adv-y="1000"  />

      
      <glyph glyph-name="uni04B8" unicode="&#x04B8;" d="M875 1000L875 125L625 125L625 500L500 500L500 375L375 375L375 500L125 500L125 625L0 625L0 1000L250 1000L250 625L375 625L375 750L500 750L500 625L625 625L625 1000L875 1000Z"  horiz-adv-x="1000" vert-adv-y="1000"  />

      
      <glyph glyph-name="uni04BA" unicode="&#x04BA;" d="M125 125L125 1000L375 1000L375 625L875 625L875 500L1000 500L1000 125L750 125L750 500L375 500L375 125L125 125Z"  horiz-adv-x="1000" vert-adv-y="1000"  />

      
      <glyph glyph-name="uni04C0" unicode="&#x04C0;" d="M125 125L125 250L375 250L375 875L125 875L125 1000L875 1000L875 875L625 875L625 250L875 250L875 125L125 125Z"  horiz-adv-x="1000" vert-adv-y="1000"  />

      
      <glyph glyph-name="uni04C1" unicode="&#x04C1;" d="M125 875L125 1000L750 1000L750 875L125 875M0 125L0 375L125 375L125 500L0 500L0 750L250 750L250 500L375 500L375 750L500 750L500 500L625 500L625 750L875 750L875 500L750 500L750 375L875 375L875 125L625 125L625 375L500 375L500 125L375 125L375 375L250 375L250 125L0 125Z"  horiz-adv-x="1000" vert-adv-y="1000"  />

      
      <glyph glyph-name="uni04CB" unicode="&#x04CB;" d="M875 250L1000 250L1000 0L750 0L750 125L625 125L625 500L125 500L125 625L0 625L0 1000L250 1000L250 625L625 625L625 1000L875 1000L875 250Z"  horiz-adv-x="1000" vert-adv-y="1000"  />

      
      <glyph glyph-name="uni04D0" unicode="&#x04D0;" d="M125 875L125 1000L750 1000L750 875L125 875M0 125L0 500L125 500L125 625L250 625L250 750L625 750L625 625L750 625L750 500L875 500L875 125L625 125L625 250L250 250L250 125L0 125M250 375L625 375L625 500L500 500L500 625L375 625L375 500L250 500L250 375Z"  horiz-adv-x="1000" vert-adv-y="1000"  />

      
      <glyph glyph-name="uni04D2" unicode="&#x04D2;" d="M125 875L125 1000L375 1000L375 875L125 875M500 875L500 1000L750 1000L750 875L500 875M0 125L0 500L125 500L125 625L250 625L250 750L625 750L625 625L750 625L750 500L875 500L875 125L625 125L625 250L250 250L250 125L0 125M250 375L625 375L625 500L500 500L500 625L375 625L375 500L250 500L250 375Z"  horiz-adv-x="1000" vert-adv-y="1000"  />

      
      <glyph glyph-name="uni04D6" unicode="&#x04D6;" d="M125 875L125 1000L750 1000L750 875L125 875M0 125L0 750L875 750L875 625L250 625L250 500L750 500L750 375L250 375L250 250L875 250L875 125L0 125Z"  horiz-adv-x="1000" vert-adv-y="1000"  />

      
      <glyph glyph-name="uni04D8" unicode="&#x04D8;" d="M875 875L875 250L750 250L750 125L125 125L125 250L0 250L0 625L625 625L625 875L250 875L250 750L0 750L0 875L125 875L125 1000L750 1000L750 875L875 875M625 250L625 500L250 500L250 250L625 250Z"  horiz-adv-x="1000" vert-adv-y="1000"  />

      
      <glyph glyph-name="uni04DC" unicode="&#x04DC;" d="M125 875L125 1000L375 1000L375 875L125 875M500 875L500 1000L750 1000L750 875L500 875M0 125L0 375L125 375L125 500L0 500L0 750L250 750L250 500L375 500L375 750L500 750L500 500L625 500L625 750L875 750L875 500L750 500L750 375L875 375L875 125L625 125L625 375L500 375L500 125L375 125L375 375L250 375L250 125L0 125Z"  horiz-adv-x="1000" vert-adv-y="1000"  />

      
      <glyph glyph-name="uni04DE" unicode="&#x04DE;" d="M125 875L125 1000L375 1000L375 875L125 875M500 875L500 1000L750 1000L750 875L500 875M125 125L125 250L0 250L0 375L250 375L250 250L625 250L625 375L375 375L375 500L625 500L625 625L250 625L250 500L0 500L0 625L125 625L125 750L750 750L750 625L875 625L875 500L750 500L750 375L875 375L875 250L750 250L750 125L125 125Z"  horiz-adv-x="1000" vert-adv-y="1000"  />

      
      <glyph glyph-name="uni04E2" unicode="&#x04E2;" d="M125 875L125 1000L750 1000L750 875L125 875M0 125L0 750L250 750L250 375L375 375L375 500L500 500L500 625L625 625L625 750L875 750L875 125L625 125L625 375L500 375L500 250L375 250L375 125L0 125Z"  horiz-adv-x="1000" vert-adv-y="1000"  />

      
      <glyph glyph-name="uni04E4" unicode="&#x04E4;" d="M125 875L125 1000L375 1000L375 875L125 875M500 875L500 1000L750 1000L750 875L500 875M0 125L0 750L250 750L250 375L375 375L375 500L500 500L500 625L625 625L625 750L875 750L875 125L625 125L625 375L500 375L500 250L375 250L375 125L0 125Z"  horiz-adv-x="1000" vert-adv-y="1000"  />

      
      <glyph glyph-name="uni04E6" unicode="&#x04E6;" d="M125 875L125 1000L375 1000L375 875L125 875M500 875L500 1000L750 1000L750 875L500 875M125 125L125 250L0 250L0 625L125 625L125 750L750 750L750 625L875 625L875 250L750 250L750 125L125 125M250 250L625 250L625 625L250 625L250 250Z"  horiz-adv-x="1000" vert-adv-y="1000"  />

      
      <glyph glyph-name="uni04E8" unicode="&#x04E8;" d="M125 125L125 250L0 250L0 875L125 875L125 1000L750 1000L750 875L875 875L875 250L750 250L750 125L125 125M250 250L625 250L625 875L250 875L250 250M125 500L750 500L750 625L125 625L125 500Z"  horiz-adv-x="1000" vert-adv-y="1000"  />

      
      <glyph glyph-name="uni04EE" unicode="&#x04EE;" d="M125 875L125 1000L750 1000L750 875L125 875M125 125L125 250L625 250L625 375L125 375L125 500L0 500L0 750L250 750L250 500L625 500L625 750L875 750L875 250L750 250L750 125L125 125Z"  horiz-adv-x="1000" vert-adv-y="1000"  />

      
      <glyph glyph-name="uni04F0" unicode="&#x04F0;" d="M125 875L125 1000L375 1000L375 875L125 875M500 875L500 1000L750 1000L750 875L500 875M125 125L125 250L625 250L625 375L125 375L125 500L0 500L0 750L250 750L250 500L625 500L625 750L875 750L875 250L750 250L750 125L125 125Z"  horiz-adv-x="1000" vert-adv-y="1000"  />

      
      <glyph glyph-name="uni04F2" unicode="&#x04F2;" d="M375 875L250 875L250 1000L375 1000L375 875M750 875L625 875L625 1000L750 1000L750 875M625 750L875 750L875 250L750 250L750 125L125 125L125 250L625 250L625 375L125 375L125 500L0 500L0 750L125 750L125 875L250 875L250 500L625 500L625 750M625 875L625 750L500 750L500 875L625 875Z"  horiz-adv-x="1000" vert-adv-y="1000"  />

      
      <glyph glyph-name="uni04F4" unicode="&#x04F4;" d="M125 875L125 1000L375 1000L375 875L125 875M500 875L500 1000L750 1000L750 875L500 875M625 125L625 375L125 375L125 500L0 500L0 750L250 750L250 500L625 500L625 750L875 750L875 125L625 125Z"  horiz-adv-x="1000" vert-adv-y="1000"  />

      
      </font>
</defs>
</svg>
